<?xml version="1.0" encoding="UTF-8"?>
<!DOCTYPE svg PUBLIC "-//W3C//DTD SVG 1.1//EN" "http://www.w3.org/Graphics/SVG/1.1/DTD/svg11.dtd">
<svg xmlns="http://www.w3.org/2000/svg" version="1.1" width="225px" height="225px" style="shape-rendering:geometricPrecision; text-rendering:geometricPrecision; image-rendering:optimizeQuality; fill-rule:evenodd; clip-rule:evenodd" xmlns:xlink="http://www.w3.org/1999/xlink">
<g><path style="opacity:1" fill="#fbfcfb" d="M -0.5,-0.5 C 34.1667,-0.5 68.8333,-0.5 103.5,-0.5C 95.8814,0.480109 88.2147,1.98011 80.5,4C 75.7798,5.17624 71.4465,7.00957 67.5,9.5C 64.3093,10.0922 61.3093,11.2589 58.5,13C 54.2576,15.6096 50.2576,18.4429 46.5,21.5C 42.4281,23.2076 39.0948,25.8743 36.5,29.5C 33.8333,31.5 31.5,33.8333 29.5,36.5C 11.7736,55.3354 1.77363,77.6688 -0.5,103.5C -0.5,68.8333 -0.5,34.1667 -0.5,-0.5 Z"/></g>
<g><path style="opacity:1" fill="#fcfcfb" d="M 117.5,-0.5 C 153.167,-0.5 188.833,-0.5 224.5,-0.5C 224.5,32.8333 224.5,66.1667 224.5,99.5C 221.766,82.4729 215.933,66.4729 207,51.5C 204.636,48.3098 202.136,45.3098 199.5,42.5C 197.073,38.8951 194.407,35.3951 191.5,32C 187.167,28.3333 182.833,24.6667 178.5,21C 176.423,19.295 174.09,18.1283 171.5,17.5C 163.883,11.3972 155.216,7.39721 145.5,5.5C 143.485,4.07619 141.152,3.40953 138.5,3.5C 131.649,1.34649 124.649,0.0131583 117.5,-0.5 Z"/></g>
<g><path style="opacity:1" fill="#3a2034" d="M 103.5,-0.5 C 108.167,-0.5 112.833,-0.5 117.5,-0.5C 124.649,0.0131583 131.649,1.34649 138.5,3.5C 137.5,3.5 136.5,3.5 135.5,3.5C 134.167,3.5 132.833,3.5 131.5,3.5C 130.391,2.71003 129.058,2.21003 127.5,2C 116.833,1.33333 106.167,1.33333 95.5,2C 86.0047,4.06289 76.6714,6.56289 67.5,9.5C 71.4465,7.00957 75.7798,5.17624 80.5,4C 88.2147,1.98011 95.8814,0.480109 103.5,-0.5 Z"/></g>
<g><path style="opacity:1" fill="#f8962d" d="M 131.5,3.5 C 132.833,3.5 134.167,3.5 135.5,3.5C 136.058,4.78991 137.058,5.62325 138.5,6C 143.457,6.98446 148.123,8.65113 152.5,11C 149.482,11.0009 146.482,10.5009 143.5,9.5C 141.527,10.3311 139.527,10.4978 137.5,10C 135.608,9.02655 133.608,8.35989 131.5,8C 134.063,7.23703 134.063,6.73703 131.5,6.5C 130.214,6.85151 129.381,7.51818 129,8.5C 125.866,6.40521 122.7,6.07188 119.5,7.5C 118.566,8.56764 118.232,9.90097 118.5,11.5C 116.833,11.5 115.167,11.5 113.5,11.5C 113.708,13.9201 113.374,16.2534 112.5,18.5C 114.996,21.1927 114.33,22.8594 110.5,23.5C 110.81,20.2869 110.477,17.2869 109.5,14.5C 108.631,12.283 108.298,9.94965 108.5,7.5C 111.157,7.16202 113.49,7.82869 115.5,9.5C 116.052,7.9974 116.052,6.33073 115.5,4.5C 111.952,4.90509 108.619,4.40509 105.5,3C 114.189,2.32666 122.856,2.49333 131.5,3.5 Z"/></g>
<g><path style="opacity:1" fill="#28121a" d="M 138.5,3.5 C 141.152,3.40953 143.485,4.07619 145.5,5.5C 142.848,5.59047 140.515,4.92381 138.5,3.5 Z"/></g>
<g><path style="opacity:1" fill="#402436" d="M 145.5,5.5 C 155.216,7.39721 163.883,11.3972 171.5,17.5C 169.282,17.3862 167.282,16.7196 165.5,15.5C 159.071,11.6187 152.404,8.28534 145.5,5.5 Z"/></g>
<g><path style="opacity:1" fill="#f09a3e" d="M 135.5,3.5 C 136.5,3.5 137.5,3.5 138.5,3.5C 140.515,4.92381 142.848,5.59047 145.5,5.5C 152.404,8.28534 159.071,11.6187 165.5,15.5C 163.308,16.787 161.975,18.787 161.5,21.5C 161.34,23.3545 162.007,24.6879 163.5,25.5C 163.672,26.4916 163.338,27.1583 162.5,27.5C 159.6,29.3989 157.934,32.0656 157.5,35.5C 156.325,35.719 155.325,35.3857 154.5,34.5C 155.35,31.4273 156.35,28.4273 157.5,25.5C 158.965,24.5943 159.965,23.261 160.5,21.5C 159.995,20.0815 158.995,19.4148 157.5,19.5C 155.973,19.573 154.973,18.9063 154.5,17.5C 154.179,15.9519 153.179,15.2852 151.5,15.5C 150.191,18.7927 148.858,22.126 147.5,25.5C 146.21,26.0577 145.377,27.0577 145,28.5C 144.264,31.592 144.431,34.592 145.5,37.5C 144.5,37.5 143.5,37.5 142.5,37.5C 141.262,37.19 141.262,36.69 142.5,36C 140.527,35.5045 138.527,35.3379 136.5,35.5C 135.833,35.5 135.5,35.1667 135.5,34.5C 136.833,34.5 138.167,34.5 139.5,34.5C 139.923,32.2188 139.256,30.5521 137.5,29.5C 136.326,28.4863 135.66,27.153 135.5,25.5C 135.338,23.4727 135.505,21.4727 136,19.5C 137.667,18.2668 139.167,16.9335 140.5,15.5C 142.196,15.3146 143.529,14.4813 144.5,13C 142.406,11.6485 140.073,11.1485 137.5,11.5C 135.833,11.5 134.167,11.5 132.5,11.5C 130.678,11.1692 129.011,10.5025 127.5,9.5C 125.901,9.76781 124.568,9.43448 123.5,8.5C 122.432,7.56552 121.099,7.23219 119.5,7.5C 122.7,6.07188 125.866,6.40521 129,8.5C 129.381,7.51818 130.214,6.85151 131.5,6.5C 134.063,6.73703 134.063,7.23703 131.5,8C 133.608,8.35989 135.608,9.02655 137.5,10C 139.527,10.4978 141.527,10.3311 143.5,9.5C 146.482,10.5009 149.482,11.0009 152.5,11C 148.123,8.65113 143.457,6.98446 138.5,6C 137.058,5.62325 136.058,4.78991 135.5,3.5 Z"/></g>
<g><path style="opacity:1" fill="#e9d6b3" d="M 137.5,11.5 C 140.073,11.1485 142.406,11.6485 144.5,13C 143.529,14.4813 142.196,15.3146 140.5,15.5C 140.804,14.8501 141.137,14.1835 141.5,13.5C 140.051,12.8281 138.718,12.1614 137.5,11.5 Z"/></g>
<g><path style="opacity:1" fill="#d8d0ae" d="M 127.5,9.5 C 129.011,10.5025 130.678,11.1692 132.5,11.5C 131.167,12.8333 129.833,14.1667 128.5,15.5C 127.549,14.0813 127.216,12.4147 127.5,10.5C 127.5,10.1667 127.5,9.83333 127.5,9.5 Z"/></g>
<g><path style="opacity:1" fill="#361a27" d="M 67.5,9.5 C 60.6823,13.7445 53.6823,17.7445 46.5,21.5C 50.2576,18.4429 54.2576,15.6096 58.5,13C 61.3093,11.2589 64.3093,10.0922 67.5,9.5 Z"/></g>
<g><path style="opacity:1" fill="#37614b" d="M 132.5,11.5 C 134.167,11.5 135.833,11.5 137.5,11.5C 138.718,12.1614 140.051,12.8281 141.5,13.5C 141.137,14.1835 140.804,14.8501 140.5,15.5C 138.716,15.8925 137.05,16.5592 135.5,17.5C 135.721,16.2652 136.388,15.2652 137.5,14.5C 133.932,12.6775 131.598,13.6775 130.5,17.5C 129.818,16.7573 129.151,16.0906 128.5,15.5C 129.833,14.1667 131.167,12.8333 132.5,11.5 Z"/></g>
<g><path style="opacity:1" fill="#35232f" d="M 171.5,17.5 C 174.09,18.1283 176.423,19.295 178.5,21C 182.833,24.6667 187.167,28.3333 191.5,32C 194.407,35.3951 197.073,38.8951 199.5,42.5C 194.167,37.5 188.833,32.5 183.5,27.5C 179.767,23.7602 175.767,20.4268 171.5,17.5 Z"/></g>
<g><path style="opacity:1" fill="#e6d0a3" d="M 154.5,17.5 C 151.713,19.7198 149.38,22.3864 147.5,25.5C 148.858,22.126 150.191,18.7927 151.5,15.5C 153.179,15.2852 154.179,15.9519 154.5,17.5 Z"/></g>
<g><path style="opacity:1" fill="#e2caa0" d="M 140.5,15.5 C 139.167,16.9335 137.667,18.2668 136,19.5C 135.505,21.4727 135.338,23.4727 135.5,25.5C 134.275,24.063 133.275,22.3964 132.5,20.5C 133.77,19.7124 134.77,18.7124 135.5,17.5C 137.05,16.5592 138.716,15.8925 140.5,15.5 Z"/></g>
<g><path style="opacity:1" fill="#30692e" d="M 127.5,10.5 C 127.216,12.4147 127.549,14.0813 128.5,15.5C 129.151,16.0906 129.818,16.7573 130.5,17.5C 131.598,13.6775 133.932,12.6775 137.5,14.5C 136.388,15.2652 135.721,16.2652 135.5,17.5C 134.77,18.7124 133.77,19.7124 132.5,20.5C 133.275,22.3964 134.275,24.063 135.5,25.5C 135.66,27.153 136.326,28.4863 137.5,29.5C 137.5,30.1667 137.5,30.8333 137.5,31.5C 135.983,31.4894 134.816,30.8228 134,29.5C 133.336,25.1481 130.836,23.1481 126.5,23.5C 125.833,23.5 125.5,23.8333 125.5,24.5C 124.06,20.7247 122.727,16.7247 121.5,12.5C 123.023,10.7175 125.023,10.0508 127.5,10.5 Z"/></g>
<g><path style="opacity:1" fill="#36633c" d="M 123.5,8.5 C 124.568,9.43448 125.901,9.76781 127.5,9.5C 127.5,9.83333 127.5,10.1667 127.5,10.5C 125.023,10.0508 123.023,10.7175 121.5,12.5C 122.727,16.7247 124.06,20.7247 125.5,24.5C 124.962,26.1172 124.629,27.7839 124.5,29.5C 122.167,29.5 119.833,29.5 117.5,29.5C 118.372,22.4764 119.372,15.4764 120.5,8.5C 121.5,8.5 122.5,8.5 123.5,8.5 Z"/></g>
<g><path style="opacity:1" fill="#e3d8b1" d="M 157.5,19.5 C 158.995,19.4148 159.995,20.0815 160.5,21.5C 159.965,23.261 158.965,24.5943 157.5,25.5C 158.641,23.4513 158.641,21.4513 157.5,19.5 Z"/></g>
<g><path style="opacity:1" fill="#e6d3b1" d="M 119.5,7.5 C 121.099,7.23219 122.432,7.56552 123.5,8.5C 122.5,8.5 121.5,8.5 120.5,8.5C 119.372,15.4764 118.372,22.4764 117.5,29.5C 119.833,29.5 122.167,29.5 124.5,29.5C 124.629,27.7839 124.962,26.1172 125.5,24.5C 125.5,23.8333 125.833,23.5 126.5,23.5C 127.234,24.7079 127.567,26.0413 127.5,27.5C 125.824,28.1834 125.157,29.5168 125.5,31.5C 122.193,30.9492 118.86,30.6159 115.5,30.5C 116.721,22.8391 118.055,15.1724 119.5,7.5 Z"/></g>
<g><path style="opacity:1" fill="#ebaa56" d="M 169.5,34.5 C 169.833,33.1667 170.167,31.8333 170.5,30.5C 169.633,27.7733 167.799,25.7733 165,24.5C 164.617,25.056 164.117,25.3893 163.5,25.5C 164.572,23.1602 166.239,22.8269 168.5,24.5C 170.311,22.8384 171.978,22.6718 173.5,24C 172.545,27.0994 171.711,30.266 171,33.5C 170.617,34.056 170.117,34.3893 169.5,34.5 Z"/></g>
<g><path style="opacity:1" fill="#3d6447" d="M 126.5,23.5 C 130.836,23.1481 133.336,25.1481 134,29.5C 134.816,30.8228 135.983,31.4894 137.5,31.5C 138.773,32.0768 138.773,32.7435 137.5,33.5C 134.856,32.7049 132.189,32.0382 129.5,31.5C 129.34,29.847 128.674,28.5137 127.5,27.5C 127.567,26.0413 127.234,24.7079 126.5,23.5 Z"/></g>
<g><path style="opacity:1" fill="#2e1931" d="M 46.5,21.5 C 43.729,24.3918 40.729,27.0584 37.5,29.5C 37.1667,29.5 36.8333,29.5 36.5,29.5C 39.0948,25.8743 42.4281,23.2076 46.5,21.5 Z"/></g>
<g><path style="opacity:1" fill="#ede6d1" d="M 170.5,30.5 C 170.167,31.8333 169.833,33.1667 169.5,34.5C 168.833,34.8333 168.167,35.1667 167.5,35.5C 167.75,33.326 168.75,31.6594 170.5,30.5 Z"/></g>
<g><path style="opacity:1" fill="#4b291e" d="M 36.5,29.5 C 36.8333,29.5 37.1667,29.5 37.5,29.5C 35.1667,32.5 32.5,35.1667 29.5,37.5C 29.5,37.1667 29.5,36.8333 29.5,36.5C 31.5,33.8333 33.8333,31.5 36.5,29.5 Z"/></g>
<g><path style="opacity:1" fill="#f2ddbc" d="M 137.5,29.5 C 139.256,30.5521 139.923,32.2188 139.5,34.5C 138.167,34.5 136.833,34.5 135.5,34.5C 133.958,33.6993 132.292,33.366 130.5,33.5C 130.167,32.8333 129.833,32.1667 129.5,31.5C 132.189,32.0382 134.856,32.7049 137.5,33.5C 138.773,32.7435 138.773,32.0768 137.5,31.5C 137.5,30.8333 137.5,30.1667 137.5,29.5 Z"/></g>
<g><path style="opacity:1" fill="#f79423" d="M 130.5,33.5 C 132.292,33.366 133.958,33.6993 135.5,34.5C 135.5,35.1667 135.833,35.5 136.5,35.5C 137.609,36.29 138.942,36.79 140.5,37C 137.5,37.3333 134.5,37.6667 131.5,38C 133.483,39.1136 135.15,40.6136 136.5,42.5C 134.409,46.3499 132.576,50.3499 131,54.5C 130,55.1667 129,55.8333 128,56.5C 127.324,61.4977 125.824,66.1644 123.5,70.5C 122.539,73.4261 121.873,76.4261 121.5,79.5C 121.34,81.153 120.674,82.4863 119.5,83.5C 119.33,82.1779 119.663,81.0113 120.5,80C 119.552,79.5172 118.552,79.3505 117.5,79.5C 117.025,63.8663 117.692,48.1997 119.5,32.5C 122.079,32.0833 124.246,32.75 126,34.5C 126.249,33.376 126.749,32.376 127.5,31.5C 128.265,32.6119 129.265,33.2786 130.5,33.5 Z"/></g>
<g><path style="opacity:1" fill="#31663a" d="M 154.5,17.5 C 154.973,18.9063 155.973,19.573 157.5,19.5C 158.641,21.4513 158.641,23.4513 157.5,25.5C 155.343,27.8041 153.676,30.4707 152.5,33.5C 152.608,34.4419 152.941,35.2753 153.5,36C 155.066,36.765 156.399,36.5983 157.5,35.5C 159.664,33.178 161.331,30.5113 162.5,27.5C 163.338,27.1583 163.672,26.4916 163.5,25.5C 164.117,25.3893 164.617,25.056 165,24.5C 167.799,25.7733 169.633,27.7733 170.5,30.5C 168.75,31.6594 167.75,33.326 167.5,35.5C 162.544,43.4164 156.21,44.583 148.5,39C 144.831,34.7968 144.497,30.2968 147.5,25.5C 149.38,22.3864 151.713,19.7198 154.5,17.5 Z"/></g>
<g><path style="opacity:1" fill="#e4cc9c" d="M 157.5,25.5 C 156.35,28.4273 155.35,31.4273 154.5,34.5C 155.325,35.3857 156.325,35.719 157.5,35.5C 156.399,36.5983 155.066,36.765 153.5,36C 152.941,35.2753 152.608,34.4419 152.5,33.5C 153.676,30.4707 155.343,27.8041 157.5,25.5 Z"/></g>
<g><path style="opacity:1" fill="#e3c399" d="M 162.5,27.5 C 161.331,30.5113 159.664,33.178 157.5,35.5C 157.934,32.0656 159.6,29.3989 162.5,27.5 Z"/></g>
<g><path style="opacity:1" fill="#e7dbbe" d="M 147.5,25.5 C 144.497,30.2968 144.831,34.7968 148.5,39C 156.21,44.583 162.544,43.4164 167.5,35.5C 167.107,37.2838 166.441,38.9505 165.5,40.5C 162.865,43.4811 159.532,44.8144 155.5,44.5C 151.108,43.6407 147.775,41.3073 145.5,37.5C 144.431,34.592 144.264,31.592 145,28.5C 145.377,27.0577 146.21,26.0577 147.5,25.5 Z"/></g>
<g><path style="opacity:1" fill="#f79422" d="M 108.5,74.5 C 108.179,79.6946 108.513,84.6946 109.5,89.5C 109.813,93.0419 109.479,96.3752 108.5,99.5C 106.833,93.4993 105.166,87.4993 103.5,81.5C 102.492,78.1563 101.492,74.8229 100.5,71.5C 99.3091,67.4179 97.8091,63.4179 96,59.5C 95.5007,54.5111 95.3341,49.5111 95.5,44.5C 93.5714,44.7692 91.9047,44.2692 90.5,43C 91.4558,39.6064 91.7892,36.1064 91.5,32.5C 96.1785,32.3342 100.845,32.5008 105.5,33C 104.336,34.9939 103.669,37.1605 103.5,39.5C 104.178,45.0914 105.178,50.5914 106.5,56C 104.675,62.5621 105.342,68.7287 108.5,74.5 Z"/></g>
<g><path style="opacity:1" fill="#f59527" d="M 165.5,15.5 C 167.282,16.7196 169.282,17.3862 171.5,17.5C 175.767,20.4268 179.767,23.7602 183.5,27.5C 183.539,28.5832 183.873,29.5832 184.5,30.5C 181.441,32.9597 179.108,35.9597 177.5,39.5C 178.864,43.1843 181.531,44.851 185.5,44.5C 185.5,46.1667 185.5,47.8333 185.5,49.5C 183.833,49.5 182.167,49.5 180.5,49.5C 180.5,48.1667 180.5,46.8333 180.5,45.5C 178.179,45.2289 176.179,45.8955 174.5,47.5C 174.941,44.95 174.941,42.2833 174.5,39.5C 173.27,42.7323 171.27,45.3989 168.5,47.5C 165.451,45.7659 164.451,43.4326 165.5,40.5C 166.441,38.9505 167.107,37.2838 167.5,35.5C 168.167,35.1667 168.833,34.8333 169.5,34.5C 170.117,34.3893 170.617,34.056 171,33.5C 171.711,30.266 172.545,27.0994 173.5,24C 171.978,22.6718 170.311,22.8384 168.5,24.5C 166.239,22.8269 164.572,23.1602 163.5,25.5C 162.007,24.6879 161.34,23.3545 161.5,21.5C 161.975,18.787 163.308,16.787 165.5,15.5 Z"/></g>
<g><path style="opacity:1" fill="#f69937" d="M 136.5,35.5 C 138.527,35.3379 140.527,35.5045 142.5,36C 141.262,36.69 141.262,37.19 142.5,37.5C 142.461,38.5832 142.127,39.5832 141.5,40.5C 145.839,43.9402 145.172,46.1068 139.5,47C 142.909,48.6957 144.242,51.529 143.5,55.5C 142.178,55.33 141.011,55.6634 140,56.5C 138.798,58.6775 138.298,61.0108 138.5,63.5C 137.178,63.33 136.011,63.6634 135,64.5C 133.819,69.5184 132.652,74.5184 131.5,79.5C 130.5,79.5 129.5,79.5 128.5,79.5C 128.716,81.6807 127.883,83.3474 126,84.5C 125.202,86.2588 125.369,87.9255 126.5,89.5C 128.897,87.4253 131.231,85.4253 133.5,83.5C 132.431,85.9687 131.098,88.3021 129.5,90.5C 128.761,90.369 128.094,90.5357 127.5,91C 125.332,93.9981 122.999,96.8314 120.5,99.5C 119.167,100.833 117.833,102.167 116.5,103.5C 115.957,103.44 115.624,103.107 115.5,102.5C 119.532,94.4359 123.532,86.4359 127.5,78.5C 131.605,73.7014 131.438,69.0347 127,64.5C 126.994,67.2644 125.828,69.2644 123.5,70.5C 125.824,66.1644 127.324,61.4977 128,56.5C 129,55.8333 130,55.1667 131,54.5C 132.576,50.3499 134.409,46.3499 136.5,42.5C 135.15,40.6136 133.483,39.1136 131.5,38C 134.5,37.6667 137.5,37.3333 140.5,37C 138.942,36.79 137.609,36.29 136.5,35.5 Z"/></g>
<g><path style="opacity:1" fill="#f79521" d="M 57.5,35.5 C 58.3105,38.3833 58.3105,41.2166 57.5,44C 58.7073,45.3002 59.3739,46.8002 59.5,48.5C 61.1998,48.3739 62.6998,47.7073 64,46.5C 65.9066,48.103 67.4066,47.7697 68.5,45.5C 69.6131,47.0314 71.1131,48.0314 73,48.5C 74.3261,48.2451 75.3261,47.5784 76,46.5C 77.0113,47.3366 78.1779,47.67 79.5,47.5C 79.3398,49.1992 79.5065,50.8659 80,52.5C 84.5995,54.9488 85.7662,58.6154 83.5,63.5C 84.8221,63.33 85.9887,63.6634 87,64.5C 88.03,69.5611 89.1967,74.5611 90.5,79.5C 92.1667,79.5 93.8333,79.5 95.5,79.5C 96.3257,82.4848 97.659,85.1515 99.5,87.5C 102.392,92.2796 105.059,97.2796 107.5,102.5C 107.043,103.298 106.376,103.631 105.5,103.5C 102.848,99.1831 99.515,95.5164 95.5,92.5C 91.5,88.1667 87.5,83.8333 83.5,79.5C 83.7229,76.8858 82.5562,75.2191 80,74.5C 78.0358,66.7326 72.8692,62.7326 64.5,62.5C 64.112,59.1212 63.4453,55.7879 62.5,52.5C 60.0657,51.0901 57.7324,49.5901 55.5,48C 54.0504,44.3888 51.7171,41.5554 48.5,39.5C 47.5224,39.9767 46.6891,40.6433 46,41.5C 45.131,38.6697 43.9643,36.003 42.5,33.5C 41.2638,34.2458 39.9305,34.5792 38.5,34.5C 40.4106,25.5304 44.744,24.197 51.5,30.5C 49.0762,32.7136 49.7429,33.7136 53.5,33.5C 53.3433,34.8734 53.51,36.2068 54,37.5C 54.8159,36.1772 55.9826,35.5106 57.5,35.5 Z"/></g>
<g><path style="opacity:1" fill="#f69938" d="M 131.5,3.5 C 122.856,2.49333 114.189,2.32666 105.5,3C 108.619,4.40509 111.952,4.90509 115.5,4.5C 116.052,6.33073 116.052,7.9974 115.5,9.5C 113.49,7.82869 111.157,7.16202 108.5,7.5C 104.833,7.5 101.167,7.5 97.5,7.5C 98.1667,12.8333 98.8333,18.1667 99.5,23.5C 97.8762,23.6399 96.7096,22.9733 96,21.5C 95.4167,17.1679 94.9167,12.8346 94.5,8.5C 91.2139,9.20713 87.8806,9.54046 84.5,9.5C 84.2322,11.099 84.5655,12.4324 85.5,13.5C 85.5,13.8333 85.5,14.1667 85.5,14.5C 84.9197,18.649 85.5864,22.3157 87.5,25.5C 88.3382,25.8417 88.6716,26.5084 88.5,27.5C 88.5106,29.0174 89.1772,30.1841 90.5,31C 95.9701,31.8512 101.303,31.3512 106.5,29.5C 109.134,24.8709 110.134,19.8709 109.5,14.5C 110.477,17.2869 110.81,20.2869 110.5,23.5C 114.33,22.8594 114.996,21.1927 112.5,18.5C 113.374,16.2534 113.708,13.9201 113.5,11.5C 115.167,11.5 116.833,11.5 118.5,11.5C 118.232,9.90097 118.566,8.56764 119.5,7.5C 118.055,15.1724 116.721,22.8391 115.5,30.5C 118.86,30.6159 122.193,30.9492 125.5,31.5C 125.157,29.5168 125.824,28.1834 127.5,27.5C 128.674,28.5137 129.34,29.847 129.5,31.5C 129.833,32.1667 130.167,32.8333 130.5,33.5C 129.265,33.2786 128.265,32.6119 127.5,31.5C 126.749,32.376 126.249,33.376 126,34.5C 124.246,32.75 122.079,32.0833 119.5,32.5C 117.692,48.1997 117.025,63.8663 117.5,79.5C 118.552,79.3505 119.552,79.5172 120.5,80C 119.663,81.0113 119.33,82.1779 119.5,83.5C 118.128,88.6431 116.295,93.6431 114,98.5C 113.501,94.1794 113.334,89.8461 113.5,85.5C 115.593,77.308 115.76,68.9747 114,60.5C 113.692,59.6919 113.192,59.0253 112.5,58.5C 109.203,63.281 107.869,68.6144 108.5,74.5C 105.342,68.7287 104.675,62.5621 106.5,56C 105.178,50.5914 104.178,45.0914 103.5,39.5C 103.669,37.1605 104.336,34.9939 105.5,33C 100.845,32.5008 96.1785,32.3342 91.5,32.5C 91.7892,36.1064 91.4558,39.6064 90.5,43C 91.9047,44.2692 93.5714,44.7692 95.5,44.5C 95.3341,49.5111 95.5007,54.5111 96,59.5C 97.8091,63.4179 99.3091,67.4179 100.5,71.5C 98.1824,69.8148 97.1824,67.4815 97.5,64.5C 94.2657,64.2366 92.9324,65.7366 93.5,69C 94.0909,72.5272 94.7575,76.0272 95.5,79.5C 93.8333,79.5 92.1667,79.5 90.5,79.5C 89.1967,74.5611 88.03,69.5611 87,64.5C 85.9887,63.6634 84.8221,63.33 83.5,63.5C 85.7662,58.6154 84.5995,54.9488 80,52.5C 79.5065,50.8659 79.3398,49.1992 79.5,47.5C 78.1779,47.67 77.0113,47.3366 76,46.5C 75.3261,47.5784 74.3261,48.2451 73,48.5C 71.1131,48.0314 69.6131,47.0314 68.5,45.5C 67.4066,47.7697 65.9066,48.103 64,46.5C 62.6998,47.7073 61.1998,48.3739 59.5,48.5C 59.3739,46.8002 58.7073,45.3002 57.5,44C 58.3105,41.2166 58.3105,38.3833 57.5,35.5C 55.9826,35.5106 54.8159,36.1772 54,37.5C 53.51,36.2068 53.3433,34.8734 53.5,33.5C 49.7429,33.7136 49.0762,32.7136 51.5,30.5C 44.744,24.197 40.4106,25.5304 38.5,34.5C 39.9305,34.5792 41.2638,34.2458 42.5,33.5C 43.9643,36.003 45.131,38.6697 46,41.5C 46.6891,40.6433 47.5224,39.9767 48.5,39.5C 51.7171,41.5554 54.0504,44.3888 55.5,48C 57.7324,49.5901 60.0657,51.0901 62.5,52.5C 63.4453,55.7879 64.112,59.1212 64.5,62.5C 72.8692,62.7326 78.0358,66.7326 80,74.5C 82.5562,75.2191 83.7229,76.8858 83.5,79.5C 78.673,80.5391 74.0064,79.8724 69.5,77.5C 62.672,72.5852 55.672,67.9186 48.5,63.5C 48.5,62.8333 48.1667,62.5 47.5,62.5C 40.9323,56.5374 33.9323,51.0374 26.5,46C 25.7476,45.3292 25.4142,44.4959 25.5,43.5C 26.8075,41.5178 28.1408,39.5178 29.5,37.5C 32.5,35.1667 35.1667,32.5 37.5,29.5C 40.729,27.0584 43.729,24.3918 46.5,21.5C 53.6823,17.7445 60.6823,13.7445 67.5,9.5C 76.6714,6.56289 86.0047,4.06289 95.5,2C 106.167,1.33333 116.833,1.33333 127.5,2C 129.058,2.21003 130.391,2.71003 131.5,3.5 Z"/></g>
<g><path style="opacity:1" fill="#efdebe" d="M 67.5,37.5 C 69.561,38.7514 69.8943,40.4181 68.5,42.5C 66.5,43.5 64.5,44.5 62.5,45.5C 60.9617,43.7567 59.9617,41.7567 59.5,39.5C 60.8267,40.8001 62.16,42.1335 63.5,43.5C 67.4902,42.8972 68.8235,40.8972 67.5,37.5 Z"/></g>
<g><path style="opacity:1" fill="#eacc9f" d="M 80.5,30.5 C 83.9598,32.0615 84.2931,34.0615 81.5,36.5C 79.3622,37.2431 77.1956,37.9097 75,38.5C 73.0188,38.1015 71.5188,37.1015 70.5,35.5C 73.8946,37.1461 77.0613,36.8127 80,34.5C 80.49,33.2068 80.6567,31.8734 80.5,30.5 Z"/></g>
<g><path style="opacity:1" fill="#dfd5c5" d="M 70.5,35.5 C 68.8212,35.2852 67.8212,35.9519 67.5,37.5C 63.5876,31.7788 64.5876,31.1121 70.5,35.5 Z"/></g>
<g><path style="opacity:1" fill="#ebd9ba" d="M 55.5,23.5 C 54.8592,24.4822 54.1925,25.4822 53.5,26.5C 54.4565,28.0754 55.1231,29.742 55.5,31.5C 53.822,30.2529 52.4887,28.5862 51.5,26.5C 52.2826,24.7118 53.6159,23.7118 55.5,23.5 Z"/></g>
<g><path style="opacity:1" fill="#d7d8b8" d="M 77.5,25.5 C 79.2503,26.6594 80.2503,28.326 80.5,30.5C 78.7497,29.3406 77.7497,27.674 77.5,25.5 Z"/></g>
<g><path style="opacity:1" fill="#356539" d="M 88.5,27.5 C 88.6716,26.5084 88.3382,25.8417 87.5,25.5C 87.5701,21.5752 86.9034,17.9085 85.5,14.5C 85.5,14.1667 85.5,13.8333 85.5,13.5C 85.5,12.5 85.5,11.5 85.5,10.5C 87.8568,10.3367 90.1902,10.5034 92.5,11C 93.5969,15.0737 94.4302,19.2403 95,23.5C 96.6155,24.8009 98.1155,24.8009 99.5,23.5C 100.532,18.6594 100.532,13.6594 99.5,8.5C 101.833,8.5 104.167,8.5 106.5,8.5C 107.164,12.4869 107.831,16.4869 108.5,20.5C 107.499,27.6586 103.333,30.9919 96,30.5C 93.2126,30.2112 90.7126,29.2112 88.5,27.5 Z"/></g>
<g><path style="opacity:1" fill="#356738" d="M 71.5,15.5 C 73.1373,19.1178 75.1373,22.4512 77.5,25.5C 77.7497,27.674 78.7497,29.3406 80.5,30.5C 80.6567,31.8734 80.49,33.2068 80,34.5C 77.0613,36.8127 73.8946,37.1461 70.5,35.5C 64.5876,31.1121 63.5876,31.7788 67.5,37.5C 68.8235,40.8972 67.4902,42.8972 63.5,43.5C 62.16,42.1335 60.8267,40.8001 59.5,39.5C 59.3404,37.847 58.6737,36.5137 57.5,35.5C 57.3404,33.847 56.6737,32.5137 55.5,31.5C 55.1231,29.742 54.4565,28.0754 53.5,26.5C 54.1925,25.4822 54.8592,24.4822 55.5,23.5C 57.5,23.1667 59.5,22.8333 61.5,22.5C 61.8417,23.3382 62.5084,23.6716 63.5,23.5C 65.1788,25.1747 67.1788,26.008 69.5,26C 68.5119,23.833 67.1786,21.9997 65.5,20.5C 66.2876,17.3791 68.2876,15.7124 71.5,15.5 Z"/></g>
<g><path style="opacity:1" fill="#e0d5a6" d="M 65.5,20.5 C 67.1786,21.9997 68.5119,23.833 69.5,26C 67.1788,26.008 65.1788,25.1747 63.5,23.5C 65.0481,23.1788 65.7148,22.1788 65.5,20.5 Z"/></g>
<g><path style="opacity:1" fill="#e9c69a" d="M 85.5,14.5 C 86.9034,17.9085 87.5701,21.5752 87.5,25.5C 85.5864,22.3157 84.9197,18.649 85.5,14.5 Z"/></g>
<g><path style="opacity:1" fill="#e7cfb9" d="M 61.5,22.5 C 59.5,22.8333 57.5,23.1667 55.5,23.5C 56.1342,22.0532 57.3009,21.3866 59,21.5C 60.0698,21.528 60.9032,21.8614 61.5,22.5 Z"/></g>
<g><path style="opacity:1" fill="#ecd5aa" d="M 108.5,7.5 C 108.298,9.94965 108.631,12.283 109.5,14.5C 110.134,19.8709 109.134,24.8709 106.5,29.5C 101.303,31.3512 95.9701,31.8512 90.5,31C 89.1772,30.1841 88.5106,29.0174 88.5,27.5C 90.7126,29.2112 93.2126,30.2112 96,30.5C 103.333,30.9919 107.499,27.6586 108.5,20.5C 107.831,16.4869 107.164,12.4869 106.5,8.5C 104.167,8.5 101.833,8.5 99.5,8.5C 100.532,13.6594 100.532,18.6594 99.5,23.5C 98.8333,18.1667 98.1667,12.8333 97.5,7.5C 101.167,7.5 104.833,7.5 108.5,7.5 Z"/></g>
<g><path style="opacity:1" fill="#e2d3ac" d="M 71.5,15.5 C 74.665,18.0276 76.665,21.3609 77.5,25.5C 75.1373,22.4512 73.1373,19.1178 71.5,15.5 Z"/></g>
<g><path style="opacity:1" fill="#e8d8ab" d="M 99.5,23.5 C 98.1155,24.8009 96.6155,24.8009 95,23.5C 94.4302,19.2403 93.5969,15.0737 92.5,11C 90.1902,10.5034 87.8568,10.3367 85.5,10.5C 85.5,11.5 85.5,12.5 85.5,13.5C 84.5655,12.4324 84.2322,11.099 84.5,9.5C 87.8806,9.54046 91.2139,9.20713 94.5,8.5C 94.9167,12.8346 95.4167,17.1679 96,21.5C 96.7096,22.9733 97.8762,23.6399 99.5,23.5 Z"/></g>
<g><path style="opacity:1" fill="#f79422" d="M 142.5,37.5 C 143.5,37.5 144.5,37.5 145.5,37.5C 147.775,41.3073 151.108,43.6407 155.5,44.5C 157.694,45.7665 160.028,45.7665 162.5,44.5C 166.472,48.9353 165.806,52.602 160.5,55.5C 159.52,58.0865 159.187,60.7531 159.5,63.5C 155.518,62.5778 153.184,64.0778 152.5,68C 144.167,70.1633 138.5,75.3299 135.5,83.5C 134.833,83.5 134.167,83.5 133.5,83.5C 131.231,85.4253 128.897,87.4253 126.5,89.5C 125.369,87.9255 125.202,86.2588 126,84.5C 127.883,83.3474 128.716,81.6807 128.5,79.5C 129.5,79.5 130.5,79.5 131.5,79.5C 132.652,74.5184 133.819,69.5184 135,64.5C 136.011,63.6634 137.178,63.33 138.5,63.5C 138.298,61.0108 138.798,58.6775 140,56.5C 141.011,55.6634 142.178,55.33 143.5,55.5C 144.242,51.529 142.909,48.6957 139.5,47C 145.172,46.1068 145.839,43.9402 141.5,40.5C 142.127,39.5832 142.461,38.5832 142.5,37.5 Z"/></g>
<g><path style="opacity:1" fill="#f6993a" d="M 183.5,27.5 C 188.833,32.5 194.167,37.5 199.5,42.5C 199.5,42.8333 199.5,43.1667 199.5,43.5C 190.859,49.4807 182.525,55.8141 174.5,62.5C 173.833,62.5 173.5,62.8333 173.5,63.5C 168.825,66.5031 164.159,69.5031 159.5,72.5C 154.901,74.7158 149.901,75.8825 144.5,76C 143.167,76.6667 141.833,77.3333 140.5,78C 139.336,80.3284 137.67,82.1618 135.5,83.5C 138.5,75.3299 144.167,70.1633 152.5,68C 153.184,64.0778 155.518,62.5778 159.5,63.5C 159.187,60.7531 159.52,58.0865 160.5,55.5C 165.806,52.602 166.472,48.9353 162.5,44.5C 160.028,45.7665 157.694,45.7665 155.5,44.5C 159.532,44.8144 162.865,43.4811 165.5,40.5C 164.451,43.4326 165.451,45.7659 168.5,47.5C 171.27,45.3989 173.27,42.7323 174.5,39.5C 174.941,42.2833 174.941,44.95 174.5,47.5C 176.179,45.8955 178.179,45.2289 180.5,45.5C 180.5,46.8333 180.5,48.1667 180.5,49.5C 182.167,49.5 183.833,49.5 185.5,49.5C 185.5,47.8333 185.5,46.1667 185.5,44.5C 181.531,44.851 178.864,43.1843 177.5,39.5C 179.108,35.9597 181.441,32.9597 184.5,30.5C 183.873,29.5832 183.539,28.5832 183.5,27.5 Z"/></g>
<g><path style="opacity:1" fill="#fcfcfc" d="M 224.5,118.5 C 224.5,153.833 224.5,189.167 224.5,224.5C 189.833,224.5 155.167,224.5 120.5,224.5C 173.782,217.054 207.615,187.387 222,135.5C 222.809,129.683 223.642,124.017 224.5,118.5 Z"/></g>
<g><path style="opacity:1" fill="#fcfcfc" d="M -0.5,119.5 C 5.41277,168.263 31.4128,201.43 77.5,219C 86.2461,221.212 94.9128,223.045 103.5,224.5C 68.8333,224.5 34.1667,224.5 -0.5,224.5C -0.5,189.5 -0.5,154.5 -0.5,119.5 Z"/></g>
<g><path style="opacity:1" fill="#23233c" d="M 29.5,36.5 C 29.5,36.8333 29.5,37.1667 29.5,37.5C 28.1408,39.5178 26.8075,41.5178 25.5,43.5C 17.7841,52.2569 12.1175,62.2569 8.5,73.5C 1.83065,89.2909 -0.169349,105.624 2.5,122.5C 5.71991,157.866 22.0532,185.366 51.5,205C 68.3712,215.436 86.7046,221.269 106.5,222.5C 110.5,222.5 114.5,222.5 118.5,222.5C 156.637,219.112 185.97,201.445 206.5,169.5C 224.463,137.927 227.297,104.927 215,70.5C 210.833,60.82 205.666,51.82 199.5,43.5C 199.5,43.1667 199.5,42.8333 199.5,42.5C 202.136,45.3098 204.636,48.3098 207,51.5C 215.933,66.4729 221.766,82.4729 224.5,99.5C 224.5,105.833 224.5,112.167 224.5,118.5C 223.642,124.017 222.809,129.683 222,135.5C 207.615,187.387 173.782,217.054 120.5,224.5C 114.833,224.5 109.167,224.5 103.5,224.5C 94.9128,223.045 86.2461,221.212 77.5,219C 31.4128,201.43 5.41277,168.263 -0.5,119.5C -0.5,114.167 -0.5,108.833 -0.5,103.5C 1.77363,77.6688 11.7736,55.3354 29.5,36.5 Z"/></g>
<g><path style="opacity:1" fill="#f5f5f6" d="M 206.5,169.5 C 185.97,201.445 156.637,219.112 118.5,222.5C 123.225,219.371 128.892,217.371 135.5,216.5C 135.5,215.5 135.5,214.5 135.5,213.5C 136.163,211.958 136.83,210.291 137.5,208.5C 138.183,208.863 138.85,209.196 139.5,209.5C 139.328,210.492 139.662,211.158 140.5,211.5C 140.5,212.5 140.5,213.5 140.5,214.5C 143.518,214.665 146.518,214.498 149.5,214C 148.833,213.333 148.167,212.667 147.5,212C 149.067,210.924 150.734,210.091 152.5,209.5C 154.801,210.396 157.134,210.562 159.5,210C 158.891,207.942 157.891,207.109 156.5,207.5C 156.863,206.817 157.196,206.15 157.5,205.5C 156.092,202.242 154.426,199.076 152.5,196C 156.146,197.255 159.646,199.088 163,201.5C 164.395,201.22 165.562,200.553 166.5,199.5C 163.628,195.09 161.295,190.423 159.5,185.5C 160.15,185.804 160.817,186.137 161.5,186.5C 162.62,185.167 163.953,184.667 165.5,185C 167.82,188.485 170.487,191.651 173.5,194.5C 175.999,192.604 175.999,190.604 173.5,188.5C 173.318,186.325 172.651,184.325 171.5,182.5C 172.615,179.933 174.282,177.767 176.5,176C 177.332,175.312 177.998,175.479 178.5,176.5C 180.413,179.618 182.08,182.618 183.5,185.5C 189.414,187.084 191.414,184.917 189.5,179C 189.387,177.301 190.053,176.134 191.5,175.5C 196.042,174.166 196.375,172.499 192.5,170.5C 193.492,168.974 194.992,168.307 197,168.5C 199.006,169.073 200.84,169.073 202.5,168.5C 203.192,169.025 203.692,169.692 204,170.5C 204.671,169.748 205.504,169.414 206.5,169.5 Z"/></g>
<g><path style="opacity:1" fill="#38653b" d="M 41.5,185.5 C 40.8501,185.804 40.1835,186.137 39.5,186.5C 37.4807,184.81 35.4807,183.144 33.5,181.5C 32.6971,180.577 32.5304,179.577 33,178.5C 36.39,174.607 40.2233,171.273 44.5,168.5C 46.9837,170.483 49.3171,172.65 51.5,175C 50.9535,175.925 50.2868,176.758 49.5,177.5C 47.8333,176.167 46.1667,174.833 44.5,173.5C 43.6919,173.808 43.0253,174.308 42.5,175C 43.6667,176.167 44.8333,177.333 46,178.5C 46.5,180.667 45.6667,181.5 43.5,181C 41.6629,177.355 39.6629,177.022 37.5,180C 38.965,181.774 40.2983,183.608 41.5,185.5 Z"/></g>
<g><path style="opacity:1" fill="#3b633b" d="M 192.5,170.5 C 196.375,172.499 196.042,174.166 191.5,175.5C 187.506,173.651 186.006,174.985 187,179.5C 188.583,181.202 188.083,182.536 185.5,183.5C 181.675,179.346 178.675,174.68 176.5,169.5C 176.728,167.603 177.728,166.27 179.5,165.5C 183.754,167.464 188.088,169.131 192.5,170.5 Z"/></g>
<g><path style="opacity:1" fill="#d1edd2" d="M 180.5,171.5 C 182.125,170.675 183.792,171.008 185.5,172.5C 185.192,173.308 184.692,173.975 184,174.5C 182.961,173.29 181.794,172.29 180.5,171.5 Z"/></g>
<g><path style="opacity:1" fill="#376038" d="M 207.5,146.5 C 208.404,147.209 208.737,148.209 208.5,149.5C 203.729,149.75 199.229,148.417 195,145.5C 194.49,148.005 192.99,149.505 190.5,150C 194.44,151.886 197.94,154.386 201,157.5C 202.593,164.867 199.76,168.033 192.5,167C 188.835,165.503 185.502,163.503 182.5,161C 182.998,159.842 183.831,159.009 185,158.5C 187.738,160.12 190.572,161.62 193.5,163C 198.589,163.725 199.589,162.058 196.5,158C 193.368,156.365 190.368,154.532 187.5,152.5C 190.097,147.209 192.597,141.876 195,136.5C 195.925,137.047 196.758,137.713 197.5,138.5C 196.355,139.891 196.355,141.224 197.5,142.5C 200.782,144.037 204.116,145.37 207.5,146.5 Z"/></g>
<g><path style="opacity:1" fill="#34613b" d="M 28.5,172.5 C 25.2622,170.427 22.9289,167.594 21.5,164C 24.715,161.277 28.0484,158.777 31.5,156.5C 33.5668,154.453 35.4002,154.453 37,156.5C 43.3524,166.797 40.5191,172.13 28.5,172.5 Z"/></g>
<g><path style="opacity:1" fill="#e8f3e7" d="M 33.5,159.5 C 36.2474,160.973 37.0807,163.306 36,166.5C 33.5027,168.478 30.6693,168.978 27.5,168C 26.4829,166.951 26.3162,165.784 27,164.5C 29.352,162.97 31.5187,161.303 33.5,159.5 Z"/></g>
<g><path style="opacity:1" fill="#eff6ef" d="M 25.5,43.5 C 25.4142,44.4959 25.7476,45.3292 26.5,46C 33.9323,51.0374 40.9323,56.5374 47.5,62.5C 37.5776,73.9077 31.911,87.2411 30.5,102.5C 29.1667,108.833 29.1667,115.167 30.5,121.5C 34.2672,152.847 50.6005,175.013 79.5,188C 117.705,200.577 149.872,191.743 176,161.5C 179.956,155.921 183.123,149.921 185.5,143.5C 186.677,141.321 187.677,138.987 188.5,136.5C 190.175,134.851 192.175,133.518 194.5,132.5C 193.833,132.167 193.167,131.833 192.5,131.5C 193.263,130.281 194.263,129.281 195.5,128.5C 195.304,123.015 194.97,117.348 194.5,111.5C 195.5,111.5 196.5,111.5 197.5,111.5C 198.595,120.214 203.262,123.048 211.5,120C 213.07,118.603 214.404,117.103 215.5,115.5C 214.568,120.84 214.901,126.173 216.5,131.5C 217.575,138.675 214.575,142.008 207.5,141.5C 207.5,143.167 207.5,144.833 207.5,146.5C 204.116,145.37 200.782,144.037 197.5,142.5C 196.355,141.224 196.355,139.891 197.5,138.5C 196.758,137.713 195.925,137.047 195,136.5C 192.597,141.876 190.097,147.209 187.5,152.5C 190.368,154.532 193.368,156.365 196.5,158C 199.589,162.058 198.589,163.725 193.5,163C 190.572,161.62 187.738,160.12 185,158.5C 183.831,159.009 182.998,159.842 182.5,161C 185.502,163.503 188.835,165.503 192.5,167C 199.76,168.033 202.593,164.867 201,157.5C 197.94,154.386 194.44,151.886 190.5,150C 192.99,149.505 194.49,148.005 195,145.5C 199.229,148.417 203.729,149.75 208.5,149.5C 209.539,154.014 209.539,158.347 208.5,162.5C 207.675,163.386 206.675,163.719 205.5,163.5C 205.517,165.565 205.85,167.565 206.5,169.5C 205.504,169.414 204.671,169.748 204,170.5C 203.692,169.692 203.192,169.025 202.5,168.5C 200.84,169.073 199.006,169.073 197,168.5C 194.992,168.307 193.492,168.974 192.5,170.5C 188.088,169.131 183.754,167.464 179.5,165.5C 177.728,166.27 176.728,167.603 176.5,169.5C 178.675,174.68 181.675,179.346 185.5,183.5C 188.083,182.536 188.583,181.202 187,179.5C 186.006,174.985 187.506,173.651 191.5,175.5C 190.053,176.134 189.387,177.301 189.5,179C 191.414,184.917 189.414,187.084 183.5,185.5C 182.08,182.618 180.413,179.618 178.5,176.5C 177.998,175.479 177.332,175.312 176.5,176C 174.282,177.767 172.615,179.933 171.5,182.5C 172.651,184.325 173.318,186.325 173.5,188.5C 171.683,186.508 170.016,184.341 168.5,182C 171.951,180.281 172.118,178.448 169,176.5C 166.5,178.333 164,180.167 161.5,182C 160.177,182.816 159.511,183.983 159.5,185.5C 157.702,184.537 156.368,185.204 155.5,187.5C 156.959,189.583 158.292,191.75 159.5,194C 156.265,192.97 153.099,191.47 150,189.5C 148.379,189.725 147.212,190.558 146.5,192C 148.953,196.406 151.287,200.906 153.5,205.5C 154.7,206.292 156.033,206.292 157.5,205.5C 157.196,206.15 156.863,206.817 156.5,207.5C 157.891,207.109 158.891,207.942 159.5,210C 157.134,210.562 154.801,210.396 152.5,209.5C 150.734,210.091 149.067,210.924 147.5,212C 148.167,212.667 148.833,213.333 149.5,214C 146.518,214.498 143.518,214.665 140.5,214.5C 140.5,213.5 140.5,212.5 140.5,211.5C 143.894,210.368 147.227,209.034 150.5,207.5C 150,206.5 149.5,205.5 149,204.5C 146.185,207.186 143.685,207.02 141.5,204C 143.5,203 145.5,202 147.5,201C 145.797,198.339 143.63,198.172 141,200.5C 140.308,199.975 139.808,199.308 139.5,198.5C 141.128,196.681 143.128,195.347 145.5,194.5C 145.113,193.28 144.28,192.613 143,192.5C 139.971,193.285 137.138,194.451 134.5,196C 136.267,200.468 137.934,204.968 139.5,209.5C 138.85,209.196 138.183,208.863 137.5,208.5C 136.83,210.291 136.163,211.958 135.5,213.5C 135.5,214.5 135.5,215.5 135.5,216.5C 128.892,217.371 123.225,219.371 118.5,222.5C 114.5,222.5 110.5,222.5 106.5,222.5C 102.141,222.292 98.8081,220.292 96.5,216.5C 90.7205,219.124 85.0538,218.957 79.5,216C 82.5,215.667 85.5,215.333 88.5,215C 87.2068,214.51 85.8734,214.343 84.5,214.5C 84.5,213.5 84.5,212.5 84.5,211.5C 81.5918,211.262 79.2585,212.262 77.5,214.5C 74.6919,213.03 71.6919,212.197 68.5,212C 69.5822,210.67 70.2488,209.17 70.5,207.5C 72.8516,208.786 75.3516,209.786 78,210.5C 79.2798,210.387 80.1131,209.72 80.5,208.5C 78.3451,207.59 76.3451,206.423 74.5,205C 76.3618,201.081 78.0285,197.081 79.5,193C 78.5,192.5 77.5,192 76.5,191.5C 73.3901,196.497 71.0568,201.831 69.5,207.5C 67.6203,207.771 66.287,207.104 65.5,205.5C 67.0847,204.998 67.5847,203.998 67,202.5C 65.082,201.458 63.2487,200.292 61.5,199C 62.3333,198.167 63.1667,197.333 64,196.5C 66.3483,198.933 68.515,198.933 70.5,196.5C 68.6115,195.396 66.9448,194.063 65.5,192.5C 67.8405,191.288 70.0072,191.622 72,193.5C 72.6924,192.975 73.1924,192.308 73.5,191.5C 71.1431,188.898 68.3098,186.898 65,185.5C 64.6174,186.056 64.1174,186.389 63.5,186.5C 63.5824,184.748 62.7491,183.748 61,183.5C 57.6727,184.998 54.6727,186.998 52,189.5C 52.4714,186.177 53.3048,182.843 54.5,179.5C 53.2499,175.527 51.7499,175.527 50,179.5C 49.054,183.028 47.8874,186.361 46.5,189.5C 45.6236,189.631 44.9569,189.298 44.5,188.5C 45.2458,187.264 45.5792,185.93 45.5,184.5C 44.0413,184.433 42.7079,184.766 41.5,185.5C 40.2983,183.608 38.965,181.774 37.5,180C 39.6629,177.022 41.6629,177.355 43.5,181C 45.6667,181.5 46.5,180.667 46,178.5C 44.8333,177.333 43.6667,176.167 42.5,175C 43.0253,174.308 43.6919,173.808 44.5,173.5C 46.1667,174.833 47.8333,176.167 49.5,177.5C 50.2868,176.758 50.9535,175.925 51.5,175C 49.3171,172.65 46.9837,170.483 44.5,168.5C 40.2233,171.273 36.39,174.607 33,178.5C 32.5304,179.577 32.6971,180.577 33.5,181.5C 31.9069,180.652 30.7403,179.319 30,177.5C 29.3162,176.216 29.4829,175.049 30.5,174C 29.5842,173.722 28.9175,173.222 28.5,172.5C 40.5191,172.13 43.3524,166.797 37,156.5C 35.4002,154.453 33.5668,154.453 31.5,156.5C 31.5,154.833 31.5,153.167 31.5,151.5C 25.7063,151.039 20.0397,150.706 14.5,150.5C 19.067,149.978 23.4003,148.645 27.5,146.5C 28.1476,148.149 29.1476,149.482 30.5,150.5C 31.5,150.167 32.1667,149.5 32.5,148.5C 29.7844,142.744 27.9511,136.744 27,130.5C 22.0615,124.346 16.7282,124.012 11,129.5C 10.3333,132.5 10.3333,135.5 11,138.5C 11.6708,139.252 12.5041,139.586 13.5,139.5C 13.5,140.5 13.5,141.5 13.5,142.5C 12.1266,142.657 10.7932,142.49 9.5,142C 9.83333,141.667 10.1667,141.333 10.5,141C 9.80844,136.199 9.14178,131.365 8.5,126.5C 6.47331,125.128 4.47331,123.795 2.5,122.5C 2.41423,121.504 2.74756,120.671 3.5,120C 5.13414,119.506 6.80081,119.34 8.5,119.5C 8.5,120.833 8.5,122.167 8.5,123.5C 14.172,123.24 19.8387,122.907 25.5,122.5C 25.5,121.167 25.5,119.833 25.5,118.5C 21.1434,118.586 16.81,118.92 12.5,119.5C 12.6107,118.883 12.944,118.383 13.5,118C 12.2625,117.768 11.2625,117.268 10.5,116.5C 11.9972,115.694 13.6639,115.028 15.5,114.5C 19.5882,117.684 22.7549,117.018 25,112.5C 25.8007,109.633 25.6341,106.966 24.5,104.5C 24.5,104.167 24.5,103.833 24.5,103.5C 25.4894,99.6226 26.4894,95.6226 27.5,91.5C 26.3112,90.5713 24.9778,90.238 23.5,90.5C 23.5,91.8333 23.5,93.1667 23.5,94.5C 18.8333,93.8333 14.1667,93.1667 9.5,92.5C 9.5,93.8333 9.5,95.1667 9.5,96.5C 6.61085,96.001 5.94418,94.501 7.5,92C 10.8678,91.4572 14.2011,91.6239 17.5,92.5C 17.5,91.1667 17.5,89.8333 17.5,88.5C 15.323,88.4139 13.323,87.7472 11.5,86.5C 10.0443,82.2434 9.04425,77.9101 8.5,73.5C 12.1175,62.2569 17.7841,52.2569 25.5,43.5 Z"/></g>
<g><path style="opacity:1" fill="#af9360" d="M 74.5,129.5 C 78.8231,134.48 81.8231,140.147 83.5,146.5C 83.5,150.167 83.5,153.833 83.5,157.5C 84.8255,162.156 86.1589,166.823 87.5,171.5C 87.3887,173.714 86.722,175.714 85.5,177.5C 83.8506,178.473 82.184,179.473 80.5,180.5C 79.7109,180.217 79.0442,179.717 78.5,179C 81.9416,177.719 84.6083,175.553 86.5,172.5C 85.9747,171.808 85.3081,171.308 84.5,171C 85.0585,170.275 85.3918,169.442 85.5,168.5C 83.8176,165.952 82.8176,163.118 82.5,160C 82.2505,152.67 81.0838,145.503 79,138.5C 77.6667,139.833 76.3333,141.167 75,142.5C 74.8829,141.05 75.0495,139.55 75.5,138C 75.2148,136.11 74.2148,134.777 72.5,134C 73.5822,132.67 74.2488,131.17 74.5,129.5 Z"/></g>
<g><path style="opacity:1" fill="#f4f7f6" d="M 2.5,122.5 C 4.47331,123.795 6.47331,125.128 8.5,126.5C 9.14178,131.365 9.80844,136.199 10.5,141C 10.1667,141.333 9.83333,141.667 9.5,142C 10.7932,142.49 12.1266,142.657 13.5,142.5C 13.5,141.5 13.5,140.5 13.5,139.5C 13.9383,137.362 14.1049,135.028 14,132.5C 17.3333,128.5 20.6667,128.5 24,132.5C 24.3918,135.627 25.2251,138.627 26.5,141.5C 23.1779,143.828 19.5113,145.661 15.5,147C 14.6634,148.011 14.33,149.178 14.5,150.5C 20.0397,150.706 25.7063,151.039 31.5,151.5C 31.5,153.167 31.5,154.833 31.5,156.5C 28.0484,158.777 24.715,161.277 21.5,164C 22.9289,167.594 25.2622,170.427 28.5,172.5C 28.9175,173.222 29.5842,173.722 30.5,174C 29.4829,175.049 29.3162,176.216 30,177.5C 30.7403,179.319 31.9069,180.652 33.5,181.5C 35.4807,183.144 37.4807,184.81 39.5,186.5C 40.1835,186.137 40.8501,185.804 41.5,185.5C 42.7079,184.766 44.0413,184.433 45.5,184.5C 45.5792,185.93 45.2458,187.264 44.5,188.5C 44.9569,189.298 45.6236,189.631 46.5,189.5C 45.0826,192.474 46.0826,194.474 49.5,195.5C 53.8553,191.991 58.5219,188.991 63.5,186.5C 61.4263,191.09 59.093,195.59 56.5,200C 59.1943,202.347 62.1943,204.18 65.5,205.5C 66.287,207.104 67.6203,207.771 69.5,207.5C 69.8333,207.5 70.1667,207.5 70.5,207.5C 70.2488,209.17 69.5822,210.67 68.5,212C 71.6919,212.197 74.6919,213.03 77.5,214.5C 79.2585,212.262 81.5918,211.262 84.5,211.5C 84.5,212.5 84.5,213.5 84.5,214.5C 85.8734,214.343 87.2068,214.51 88.5,215C 85.5,215.333 82.5,215.667 79.5,216C 85.0538,218.957 90.7205,219.124 96.5,216.5C 98.8081,220.292 102.141,222.292 106.5,222.5C 86.7046,221.269 68.3712,215.436 51.5,205C 22.0532,185.366 5.71991,157.866 2.5,122.5 Z"/></g>
<g><path style="opacity:1" fill="#39623b" d="M 14.5,150.5 C 14.33,149.178 14.6634,148.011 15.5,147C 19.5113,145.661 23.1779,143.828 26.5,141.5C 25.2251,138.627 24.3918,135.627 24,132.5C 20.6667,128.5 17.3333,128.5 14,132.5C 14.1049,135.028 13.9383,137.362 13.5,139.5C 12.5041,139.586 11.6708,139.252 11,138.5C 10.3333,135.5 10.3333,132.5 11,129.5C 16.7282,124.012 22.0615,124.346 27,130.5C 27.9511,136.744 29.7844,142.744 32.5,148.5C 32.1667,149.5 31.5,150.167 30.5,150.5C 29.1476,149.482 28.1476,148.149 27.5,146.5C 23.4003,148.645 19.067,149.978 14.5,150.5 Z"/></g>
<g><path style="opacity:1" fill="#efe99b" d="M 173.5,63.5 C 191.539,88.1103 195.206,114.777 184.5,143.5C 175.357,163.915 160.357,178.248 139.5,186.5C 137.317,183.324 134.317,181.324 130.5,180.5C 130.5,179.5 130.5,178.5 130.5,177.5C 134.144,178.315 137.811,179.148 141.5,180C 147.946,180.737 149.613,180.57 146.5,179.5C 146.806,175.917 145.806,172.75 143.5,170C 144.032,167.98 145.365,167.147 147.5,167.5C 147.33,168.822 147.663,169.989 148.5,171C 152.5,171.667 156.5,171.667 160.5,171C 161.471,165.928 161.805,160.762 161.5,155.5C 161.833,155.5 162.167,155.5 162.5,155.5C 164.629,172.57 165.963,172.57 166.5,155.5C 166.672,154.508 166.338,153.842 165.5,153.5C 166.446,139.87 166.78,126.203 166.5,112.5C 167.167,112.5 167.5,112.167 167.5,111.5C 171.511,110.663 175.177,108.996 178.5,106.5C 179.386,105.675 179.719,104.675 179.5,103.5C 177.248,104.333 175.081,104.333 173,103.5C 172.722,104.416 172.222,105.082 171.5,105.5C 171.02,102.921 172.353,101.255 175.5,100.5C 176.823,98.796 176.49,97.4627 174.5,96.5C 172.132,97.8889 169.799,99.2222 167.5,100.5C 166.167,100.167 164.833,99.8333 163.5,99.5C 161.22,97.7773 158.553,97.1107 155.5,97.5C 154.504,97.4142 153.671,97.7476 153,98.5C 152.502,101.482 152.335,104.482 152.5,107.5C 150.956,107.297 149.622,106.63 148.5,105.5C 147.511,101.893 147.177,98.226 147.5,94.5C 146.5,94.5 145.5,94.5 144.5,94.5C 144.067,91.8344 143.567,89.1677 143,86.5C 142.617,87.056 142.117,87.3893 141.5,87.5C 147.02,82.0524 153.02,77.0524 159.5,72.5C 164.159,69.5031 168.825,66.5031 173.5,63.5 Z"/></g>
<g><path style="opacity:1" fill="#b18042" d="M 128.5,125.5 C 128.5,125.833 128.5,126.167 128.5,126.5C 127.668,127.329 128.001,128.162 129.5,129C 128.058,129.377 127.058,130.21 126.5,131.5C 126.5,132.167 126.5,132.833 126.5,133.5C 120.891,135.638 115.558,138.304 110.5,141.5C 105.297,143.361 100.297,145.695 95.5,148.5C 93.7105,149.877 91.7105,150.877 89.5,151.5C 89.5,150.167 89.5,148.833 89.5,147.5C 95.3693,145.568 101.036,143.068 106.5,140C 105.944,139.617 105.611,139.117 105.5,138.5C 106.167,138.5 106.5,138.167 106.5,137.5C 110.201,135.988 113.534,133.988 116.5,131.5C 120.772,129.857 124.772,127.857 128.5,125.5 Z"/></g>
<g><path style="opacity:1" fill="#f0eb9b" d="M 153.5,166.5 C 151.265,166.205 149.265,166.539 147.5,167.5C 145.365,167.147 144.032,167.98 143.5,170C 145.806,172.75 146.806,175.917 146.5,179.5C 149.613,180.57 147.946,180.737 141.5,180C 137.811,179.148 134.144,178.315 130.5,177.5C 130.5,178.5 130.5,179.5 130.5,180.5C 134.317,181.324 137.317,183.324 139.5,186.5C 119.122,194.793 98.7884,194.46 78.5,185.5C 78.5,185.167 78.5,184.833 78.5,184.5C 85.2919,184.873 91.9585,184.206 98.5,182.5C 98.8333,182.167 99.1667,181.833 99.5,181.5C 98.3349,180.416 97.0016,179.583 95.5,179C 91.9748,178.821 88.6414,178.321 85.5,177.5C 86.722,175.714 87.3887,173.714 87.5,171.5C 86.1589,166.823 84.8255,162.156 83.5,157.5C 84.4861,153.03 84.8195,148.363 84.5,143.5C 86.288,143.215 87.9547,143.548 89.5,144.5C 87.0062,148.099 87.0062,151.766 89.5,155.5C 88.7542,156.736 88.4208,158.07 88.5,159.5C 90.1667,159.5 91.8333,159.5 93.5,159.5C 93.1814,161.75 93.6814,163.75 95,165.5C 96.323,161.229 95.1563,158.062 91.5,156C 92.3079,154.294 93.6412,153.461 95.5,153.5C 95.5,154.5 95.5,155.5 95.5,156.5C 101.586,156.87 107.586,157.87 113.5,159.5C 114.167,159.167 114.833,158.833 115.5,158.5C 114.115,157.449 113.115,156.116 112.5,154.5C 113.531,153.3 114.365,151.966 115,150.5C 119.525,151.531 123.858,150.865 128,148.5C 128.49,147.207 128.657,145.873 128.5,144.5C 134.142,144.652 139.475,143.652 144.5,141.5C 144.865,144.625 145.698,147.625 147,150.5C 148.399,150.499 149.899,150.165 151.5,149.5C 152.95,150.655 153.95,152.155 154.5,154C 153.833,154.333 153.167,154.667 152.5,155C 153.46,158.73 153.793,162.563 153.5,166.5 Z"/></g>
<g><path style="opacity:1" fill="#f1e89e" d="M 157.5,147.5 C 157.101,148.521 155.767,148.854 153.5,148.5C 153.5,149.167 153.833,149.5 154.5,149.5C 155.116,151.417 156.45,152.584 158.5,153C 156.601,157.178 155.935,161.678 156.5,166.5C 155.5,166.5 154.5,166.5 153.5,166.5C 153.793,162.563 153.46,158.73 152.5,155C 153.167,154.667 153.833,154.333 154.5,154C 153.95,152.155 152.95,150.655 151.5,149.5C 149.899,150.165 148.399,150.499 147,150.5C 145.698,147.625 144.865,144.625 144.5,141.5C 139.475,143.652 134.142,144.652 128.5,144.5C 128.657,145.873 128.49,147.207 128,148.5C 123.858,150.865 119.525,151.531 115,150.5C 114.365,151.966 113.531,153.3 112.5,154.5C 113.115,156.116 114.115,157.449 115.5,158.5C 114.833,158.833 114.167,159.167 113.5,159.5C 107.586,157.87 101.586,156.87 95.5,156.5C 95.5,155.5 95.5,154.5 95.5,153.5C 93.6412,153.461 92.3079,154.294 91.5,156C 95.1563,158.062 96.323,161.229 95,165.5C 93.6814,163.75 93.1814,161.75 93.5,159.5C 91.8333,159.5 90.1667,159.5 88.5,159.5C 88.4208,158.07 88.7542,156.736 89.5,155.5C 87.0062,151.766 87.0062,148.099 89.5,144.5C 87.9547,143.548 86.288,143.215 84.5,143.5C 84.8195,148.363 84.4861,153.03 83.5,157.5C 83.5,153.833 83.5,150.167 83.5,146.5C 83.5,145.167 83.5,143.833 83.5,142.5C 88.7882,141.979 94.1215,141.812 99.5,142C 101.132,140.18 103.132,139.014 105.5,138.5C 105.611,139.117 105.944,139.617 106.5,140C 101.036,143.068 95.3693,145.568 89.5,147.5C 89.5,148.833 89.5,150.167 89.5,151.5C 92.1459,152.164 94.9792,152.498 98,152.5C 102.637,152.631 107.137,151.964 111.5,150.5C 106.015,149.833 100.681,149.167 95.5,148.5C 100.297,145.695 105.297,143.361 110.5,141.5C 110.938,141.435 111.272,141.601 111.5,142C 110.833,143.333 110.167,144.667 109.5,146C 112.287,149.064 115.287,149.231 118.5,146.5C 124.244,148.373 127.577,146.373 128.5,140.5C 131.362,139.57 133.695,137.903 135.5,135.5C 134.52,134.019 133.353,132.685 132,131.5C 130.556,133.155 128.722,133.822 126.5,133.5C 126.5,132.833 126.5,132.167 126.5,131.5C 127.873,131.657 129.207,131.49 130.5,131C 138.088,127.077 145.754,123.244 153.5,119.5C 154.665,127.479 154.832,135.479 154,143.5C 152.663,142.235 151.163,141.735 149.5,142C 152.065,144.08 154.732,145.913 157.5,147.5 Z"/></g>
<g><path style="opacity:1" fill="#f5eeb4" d="M 110.5,141.5 C 115.558,138.304 120.891,135.638 126.5,133.5C 128.722,133.822 130.556,133.155 132,131.5C 133.353,132.685 134.52,134.019 135.5,135.5C 133.695,137.903 131.362,139.57 128.5,140.5C 127.577,146.373 124.244,148.373 118.5,146.5C 115.287,149.231 112.287,149.064 109.5,146C 110.167,144.667 110.833,143.333 111.5,142C 111.272,141.601 110.938,141.435 110.5,141.5 Z"/></g>
<g><path style="opacity:1" fill="#cca05e" d="M 166.5,112.5 C 166.78,126.203 166.446,139.87 165.5,153.5C 165.44,154.043 165.107,154.376 164.5,154.5C 163.205,153.902 161.872,153.402 160.5,153C 162.255,152.28 163.089,151.113 163,149.5C 160.226,150.523 157.393,150.523 154.5,149.5C 153.833,149.5 153.5,149.167 153.5,148.5C 155.767,148.854 157.101,148.521 157.5,147.5C 158.145,137.068 158.811,126.735 159.5,116.5C 160.635,114.787 162.302,114.12 164.5,114.5C 164.343,115.873 164.51,117.207 165,118.5C 165.191,116.292 165.691,114.292 166.5,112.5 Z"/></g>
<g><path style="opacity:1" fill="#f2df9f" d="M 159.5,116.5 C 160.496,116.414 161.329,116.748 162,117.5C 162.5,127.494 162.666,137.494 162.5,147.5C 161.5,147.5 160.5,147.5 159.5,147.5C 159.5,137.167 159.5,126.833 159.5,116.5 Z"/></g>
<g><path style="opacity:1" fill="#d7ae86" d="M 64.5,117.5 C 68.9271,120.593 72.2605,124.593 74.5,129.5C 74.2488,131.17 73.5822,132.67 72.5,134C 74.2148,134.777 75.2148,136.11 75.5,138C 75.0495,139.55 74.8829,141.05 75,142.5C 76.3333,141.167 77.6667,139.833 79,138.5C 81.0838,145.503 82.2505,152.67 82.5,160C 82.8176,163.118 83.8176,165.952 85.5,168.5C 85.3918,169.442 85.0585,170.275 84.5,171C 85.3081,171.308 85.9747,171.808 86.5,172.5C 84.6083,175.553 81.9416,177.719 78.5,179C 79.0442,179.717 79.7109,180.217 80.5,180.5C 80.0557,182.113 79.0557,183.28 77.5,184C 77.7284,184.399 78.0618,184.565 78.5,184.5C 78.5,184.833 78.5,185.167 78.5,185.5C 75.6689,184.921 73.3356,183.588 71.5,181.5C 66.0547,173.642 59.8881,166.309 53,159.5C 50.0427,155.264 48.5427,150.597 48.5,145.5C 48.3367,143.143 48.5034,140.81 49,138.5C 51.4191,142.136 54.2525,142.47 57.5,139.5C 55.6177,139.642 53.6177,139.142 51.5,138C 49.8446,136.556 49.178,134.722 49.5,132.5C 50.8734,132.343 52.2068,132.51 53.5,133C 52.8333,133.333 52.1667,133.667 51.5,134C 53.5,134.667 55.5,134.667 57.5,134C 53.5957,132.818 52.7624,130.651 55,127.5C 55.4244,129.615 56.5911,130.448 58.5,130C 58.9243,127.19 58.4243,124.356 57,121.5C 56.2797,123.112 56.4464,124.612 57.5,126C 54.3428,126.217 53.1761,124.717 54,121.5C 54.3333,122.167 54.6667,122.833 55,123.5C 55.3095,122.234 55.8095,121.067 56.5,120C 56.1667,119.833 55.8333,119.667 55.5,119.5C 54.5745,120.641 53.7412,120.641 53,119.5C 52.8442,122.191 52.0109,124.524 50.5,126.5C 51.7829,123.51 51.7829,120.844 50.5,118.5C 51.7185,118.891 52.5518,118.224 53,116.5C 53.3333,116.833 53.6667,117.167 54,117.5C 54.4709,115.754 55.1376,114.087 56,112.5C 57.0395,114.746 58.2062,116.913 59.5,119C 60.8333,119.667 62.1667,119.667 63.5,119C 62.2881,117.893 62.6214,117.393 64.5,117.5 Z"/></g>
<g><path style="opacity:1" fill="#b37633" d="M 167.5,111.5 C 167.5,112.167 167.167,112.5 166.5,112.5C 165.691,114.292 165.191,116.292 165,118.5C 164.51,117.207 164.343,115.873 164.5,114.5C 162.302,114.12 160.635,114.787 159.5,116.5C 158.811,126.735 158.145,137.068 157.5,147.5C 154.732,145.913 152.065,144.08 149.5,142C 151.163,141.735 152.663,142.235 154,143.5C 154.832,135.479 154.665,127.479 153.5,119.5C 145.754,123.244 138.088,127.077 130.5,131C 129.207,131.49 127.873,131.657 126.5,131.5C 127.058,130.21 128.058,129.377 129.5,129C 128.001,128.162 127.668,127.329 128.5,126.5C 128.833,126.5 129.167,126.5 129.5,126.5C 132.741,128.139 135.408,127.305 137.5,124C 145.713,120.126 153.713,115.96 161.5,111.5C 163.39,111.703 164.89,111.037 166,109.5C 166.278,110.416 166.778,111.082 167.5,111.5 Z"/></g>
<g><path style="opacity:1" fill="#ad8760" d="M 48.5,145.5 C 47.4091,139.91 47.7424,134.243 49.5,128.5C 50.3382,128.158 50.6716,127.492 50.5,126.5C 52.0109,124.524 52.8442,122.191 53,119.5C 53.7412,120.641 54.5745,120.641 55.5,119.5C 55.8333,119.667 56.1667,119.833 56.5,120C 55.8095,121.067 55.3095,122.234 55,123.5C 54.6667,122.833 54.3333,122.167 54,121.5C 53.1761,124.717 54.3428,126.217 57.5,126C 56.4464,124.612 56.2797,123.112 57,121.5C 58.4243,124.356 58.9243,127.19 58.5,130C 56.5911,130.448 55.4244,129.615 55,127.5C 52.7624,130.651 53.5957,132.818 57.5,134C 55.5,134.667 53.5,134.667 51.5,134C 52.1667,133.667 52.8333,133.333 53.5,133C 52.2068,132.51 50.8734,132.343 49.5,132.5C 49.178,134.722 49.8446,136.556 51.5,138C 53.6177,139.142 55.6177,139.642 57.5,139.5C 54.2525,142.47 51.4191,142.136 49,138.5C 48.5034,140.81 48.3367,143.143 48.5,145.5 Z"/></g>
<g><path style="opacity:1" fill="#221e27" d="M 174.5,62.5 C 190.994,84.7819 195.661,109.449 188.5,136.5C 187.677,138.987 186.677,141.321 185.5,143.5C 185.167,143.5 184.833,143.5 184.5,143.5C 195.206,114.777 191.539,88.1103 173.5,63.5C 173.5,62.8333 173.833,62.5 174.5,62.5 Z"/></g>
<g><path style="opacity:1" fill="#f7f4cf" d="M 133.5,117.5 C 134.167,117.5 134.833,117.5 135.5,117.5C 135.833,118.167 136.167,118.833 136.5,119.5C 133.795,121.512 131.128,123.512 128.5,125.5C 124.772,127.857 120.772,129.857 116.5,131.5C 113.053,132.571 109.553,133.571 106,134.5C 104.56,133.852 103.06,133.519 101.5,133.5C 102.029,130.2 104.029,128.2 107.5,127.5C 110.238,127.294 112.572,126.294 114.5,124.5C 120.305,120.787 126.638,118.453 133.5,117.5 Z"/></g>
<g><path style="opacity:1" fill="#36633b" d="M 197.5,122.5 C 202.832,123.5 208.165,124.5 213.5,125.5C 213.5,126.833 213.5,128.167 213.5,129.5C 208.189,127.15 205.522,128.816 205.5,134.5C 207.927,134.523 210.26,135.023 212.5,136C 211.663,137.011 211.33,138.178 211.5,139.5C 206.466,138.526 201.466,137.359 196.5,136C 195.663,134.989 195.33,133.822 195.5,132.5C 197.792,132.756 199.959,132.423 202,131.5C 203.177,127.508 201.677,125.842 197.5,126.5C 197.5,125.167 197.5,123.833 197.5,122.5 Z"/></g>
<g><path style="opacity:1" fill="#f3eaaa" d="M 57.5,107.5 C 61.2571,110.139 64.7571,113.139 68,116.5C 68.6667,115.833 69.3333,115.167 70,114.5C 71.3561,115.38 72.8561,115.714 74.5,115.5C 74.67,114.178 74.3366,113.011 73.5,112C 75.9005,111.814 78.2338,111.314 80.5,110.5C 80.1373,109.817 79.8039,109.15 79.5,108.5C 82.7644,107.676 86.0977,107.342 89.5,107.5C 87.6181,108.751 85.6181,109.918 83.5,111C 85.9962,112.331 87.9962,114.164 89.5,116.5C 88.0695,116.579 86.7362,116.246 85.5,115.5C 83.7887,119.254 84.622,122.254 88,124.5C 88.3052,126.557 88.3052,128.557 88,130.5C 89.8574,133.07 92.1908,135.07 95,136.5C 95.4828,137.448 95.6495,138.448 95.5,139.5C 96.5,139.5 97.5,139.5 98.5,139.5C 98.3505,138.448 98.5172,137.448 99,136.5C 101.12,139.08 103.287,139.08 105.5,136.5C 106.107,136.624 106.44,136.957 106.5,137.5C 106.5,138.167 106.167,138.5 105.5,138.5C 103.132,139.014 101.132,140.18 99.5,142C 94.1215,141.812 88.7882,141.979 83.5,142.5C 83.5,143.833 83.5,145.167 83.5,146.5C 81.8231,140.147 78.8231,134.48 74.5,129.5C 72.2605,124.593 68.9271,120.593 64.5,117.5C 63.024,115.5 61.1906,113.833 59,112.5C 58.2086,111.255 57.7086,109.922 57.5,108.5C 57.5,108.167 57.5,107.833 57.5,107.5 Z"/></g>
<g><path style="opacity:1" fill="#f6f3c1" d="M 103.5,107.5 C 105.153,107.66 106.486,108.326 107.5,109.5C 108.067,111.03 108.733,112.53 109.5,114C 107.752,118.294 107.085,122.794 107.5,127.5C 104.029,128.2 102.029,130.2 101.5,133.5C 103.06,133.519 104.56,133.852 106,134.5C 109.553,133.571 113.053,132.571 116.5,131.5C 113.534,133.988 110.201,135.988 106.5,137.5C 106.44,136.957 106.107,136.624 105.5,136.5C 103.287,139.08 101.12,139.08 99,136.5C 98.5172,137.448 98.3505,138.448 98.5,139.5C 97.5,139.5 96.5,139.5 95.5,139.5C 95.6495,138.448 95.4828,137.448 95,136.5C 92.1908,135.07 89.8574,133.07 88,130.5C 88.3052,128.557 88.3052,126.557 88,124.5C 84.622,122.254 83.7887,119.254 85.5,115.5C 86.7362,116.246 88.0695,116.579 89.5,116.5C 91.1942,117.527 92.5275,118.861 93.5,120.5C 95.5177,124.745 98.6844,126.411 103,125.5C 103.499,119.509 103.666,113.509 103.5,107.5 Z"/></g>
<g><path style="opacity:1" fill="#ecd398" d="M 97.5,106.5 C 99.7354,106.205 101.735,106.539 103.5,107.5C 103.666,113.509 103.499,119.509 103,125.5C 98.6844,126.411 95.5177,124.745 93.5,120.5C 94.5832,120.539 95.5832,120.873 96.5,121.5C 96.9251,117.059 97.9251,112.892 99.5,109C 98.244,108.583 97.5774,107.75 97.5,106.5 Z"/></g>
<g><path style="opacity:1" fill="#806137" d="M 57.5,108.5 C 57.7086,109.922 58.2086,111.255 59,112.5C 61.1906,113.833 63.024,115.5 64.5,117.5C 62.6214,117.393 62.2881,117.893 63.5,119C 62.1667,119.667 60.8333,119.667 59.5,119C 58.2062,116.913 57.0395,114.746 56,112.5C 55.1376,114.087 54.4709,115.754 54,117.5C 53.6667,117.167 53.3333,116.833 53,116.5C 52.5518,118.224 51.7185,118.891 50.5,118.5C 51.7829,120.844 51.7829,123.51 50.5,126.5C 50.6716,127.492 50.3382,128.158 49.5,128.5C 49.1076,122.285 49.4409,115.952 50.5,109.5C 52.7638,108.781 55.0971,108.448 57.5,108.5 Z"/></g>
<g><path style="opacity:1" fill="#33633c" d="M 8.5,119.5 C 9.83333,119.5 11.1667,119.5 12.5,119.5C 16.81,118.92 21.1434,118.586 25.5,118.5C 25.5,119.833 25.5,121.167 25.5,122.5C 19.8387,122.907 14.172,123.24 8.5,123.5C 8.5,122.167 8.5,120.833 8.5,119.5 Z"/></g>
<g><path style="opacity:1" fill="#784814" d="M 146.5,114.5 C 146.842,115.338 147.508,115.672 148.5,115.5C 142.693,119.909 136.36,123.576 129.5,126.5C 129.167,126.5 128.833,126.5 128.5,126.5C 128.5,126.167 128.5,125.833 128.5,125.5C 131.128,123.512 133.795,121.512 136.5,119.5C 138.062,119.267 139.395,118.6 140.5,117.5C 142.517,116.471 144.517,115.471 146.5,114.5 Z"/></g>
<g><path style="opacity:1" fill="#d5ab6f" d="M 130.5,114.5 C 131.5,114.5 132.5,114.5 133.5,114.5C 133.5,115.5 133.5,116.5 133.5,117.5C 126.638,118.453 120.305,120.787 114.5,124.5C 113.5,124.5 112.5,124.5 111.5,124.5C 111.888,122.315 112.888,120.482 114.5,119C 113.004,117.669 111.671,116.169 110.5,114.5C 111.167,114.167 111.833,113.833 112.5,113.5C 116.385,115.209 120.385,116.542 124.5,117.5C 125.72,116.274 127.72,115.274 130.5,114.5 Z"/></g>
<g><path style="opacity:1" fill="#cfa463" d="M 97.5,106.5 C 97.5774,107.75 98.244,108.583 99.5,109C 97.9251,112.892 96.9251,117.059 96.5,121.5C 95.5832,120.873 94.5832,120.539 93.5,120.5C 92.5275,118.861 91.1942,117.527 89.5,116.5C 87.9962,114.164 85.9962,112.331 83.5,111C 85.6181,109.918 87.6181,108.751 89.5,107.5C 92.1272,106.908 94.7938,106.575 97.5,106.5 Z"/></g>
<g><path style="opacity:1" fill="#a9692a" d="M 156.5,112.5 C 153.993,113.892 151.327,114.892 148.5,115.5C 147.508,115.672 146.842,115.338 146.5,114.5C 147.833,113.167 149.167,111.833 150.5,110.5C 151.925,112.031 152.591,111.698 152.5,109.5C 153.314,107.369 153.814,105.036 154,102.5C 156.248,105.351 157.082,108.685 156.5,112.5 Z"/></g>
<g><path style="opacity:1" fill="#ddc07f" d="M 150.5,110.5 C 149.167,111.833 147.833,113.167 146.5,114.5C 144.517,115.471 142.517,116.471 140.5,117.5C 139.653,115.971 138.986,114.304 138.5,112.5C 140.292,107.632 142.792,107.299 146,111.5C 147.44,110.852 148.94,110.519 150.5,110.5 Z"/></g>
<g><path style="opacity:1" fill="#d7c39c" d="M 134.5,102.5 C 134.909,107.586 135.242,112.586 135.5,117.5C 134.833,117.5 134.167,117.5 133.5,117.5C 133.5,116.5 133.5,115.5 133.5,114.5C 132.5,114.5 131.5,114.5 130.5,114.5C 124.313,114.317 117.98,113.65 111.5,112.5C 111.392,110.486 112.058,108.82 113.5,107.5C 118.133,108.542 121.299,106.875 123,102.5C 122.689,103.935 122.855,105.268 123.5,106.5C 122.471,106.296 121.471,106.796 120.5,108C 123.668,108.582 124.001,109.582 121.5,111C 125.623,113.143 129.623,112.977 133.5,110.5C 135.187,106.757 134.187,103.924 130.5,102C 131.819,101.805 133.153,101.972 134.5,102.5 Z"/></g>
<g><path style="opacity:1" fill="#eee99b" d="M 48.5,63.5 C 55.672,67.9186 62.672,72.5852 69.5,77.5C 73.183,81.1803 77.183,84.5136 81.5,87.5C 81.33,88.8221 81.6634,89.9887 82.5,91C 81.552,91.4828 80.552,91.6495 79.5,91.5C 79.5,94.5 79.5,97.5 79.5,100.5C 76.4594,100.406 74.7928,101.906 74.5,105C 76.2475,105.352 77.9142,105.852 79.5,106.5C 79.5,107.167 79.5,107.833 79.5,108.5C 79.8039,109.15 80.1373,109.817 80.5,110.5C 78.2338,111.314 75.9005,111.814 73.5,112C 74.3366,113.011 74.67,114.178 74.5,115.5C 72.8561,115.714 71.3561,115.38 70,114.5C 69.3333,115.167 68.6667,115.833 68,116.5C 64.7571,113.139 61.2571,110.139 57.5,107.5C 54.863,104.011 52.363,100.345 50,96.5C 49.935,98.8833 49.1017,99.55 47.5,98.5C 46.4329,95.4662 45.2663,92.4662 44,89.5C 45.6935,96.3103 43.5269,97.977 37.5,94.5C 37.1667,94.8333 36.8333,95.1667 36.5,95.5C 40.6787,97.8111 45.012,99.9778 49.5,102C 47.0989,102.805 47.2656,103.638 50,104.5C 50.4935,106.134 50.6602,107.801 50.5,109.5C 49.4409,115.952 49.1076,122.285 49.5,128.5C 47.7424,134.243 47.4091,139.91 48.5,145.5C 48.5427,150.597 50.0427,155.264 53,159.5C 59.8881,166.309 66.0547,173.642 71.5,181.5C 47.6369,167.807 34.3036,147.14 31.5,119.5C 31.5,114.833 31.5,110.167 31.5,105.5C 32.7935,89.5998 38.4602,75.5998 48.5,63.5 Z"/></g>
<g><path style="opacity:1" fill="#4e4a6d" d="M 30.5,102.5 C 30.2627,103.791 30.596,104.791 31.5,105.5C 31.5,110.167 31.5,114.833 31.5,119.5C 30.6618,119.842 30.3284,120.508 30.5,121.5C 29.1667,115.167 29.1667,108.833 30.5,102.5 Z"/></g>
<g><path style="opacity:1" fill="#dec17b" d="M 161.5,111.5 C 153.713,115.96 145.713,120.126 137.5,124C 135.408,127.305 132.741,128.139 129.5,126.5C 136.36,123.576 142.693,119.909 148.5,115.5C 151.327,114.892 153.993,113.892 156.5,112.5C 158.763,110.234 159.096,107.567 157.5,104.5C 158.689,103.571 160.022,103.238 161.5,103.5C 161.792,106.376 161.792,109.043 161.5,111.5 Z"/></g>
<g><path style="opacity:1" fill="#c89c57" d="M 155.5,97.5 C 154.272,99.0098 154.272,100.51 155.5,102C 157.833,102.667 160.167,102.667 162.5,102C 163.252,101.329 163.586,100.496 163.5,99.5C 164.833,99.8333 166.167,100.167 167.5,100.5C 166.032,101.779 165.365,103.446 165.5,105.5C 167.5,105.5 169.5,105.5 171.5,105.5C 172.222,105.082 172.722,104.416 173,103.5C 175.081,104.333 177.248,104.333 179.5,103.5C 179.719,104.675 179.386,105.675 178.5,106.5C 175.177,108.996 171.511,110.663 167.5,111.5C 166.778,111.082 166.278,110.416 166,109.5C 164.89,111.037 163.39,111.703 161.5,111.5C 161.792,109.043 161.792,106.376 161.5,103.5C 160.022,103.238 158.689,103.571 157.5,104.5C 159.096,107.567 158.763,110.234 156.5,112.5C 157.082,108.685 156.248,105.351 154,102.5C 153.814,105.036 153.314,107.369 152.5,109.5C 152.5,108.833 152.5,108.167 152.5,107.5C 152.335,104.482 152.502,101.482 153,98.5C 153.671,97.7476 154.504,97.4142 155.5,97.5 Z"/></g>
<g><path style="opacity:1" fill="#366338" d="M 24.5,104.5 C 25.6341,106.966 25.8007,109.633 25,112.5C 22.7549,117.018 19.5882,117.684 15.5,114.5C 13.6639,115.028 11.9972,115.694 10.5,116.5C 9.5,116.5 8.5,116.5 7.5,116.5C 7.5,115.167 7.5,113.833 7.5,112.5C 9.56429,112.313 11.5643,111.813 13.5,111C 14.2524,110.329 14.5858,109.496 14.5,108.5C 12.7354,107.539 10.7354,107.205 8.5,107.5C 8.5,106.5 8.5,105.5 8.5,104.5C 13.8333,104.5 19.1667,104.5 24.5,104.5 Z"/></g>
<g><path style="opacity:1" fill="#d9f2e4" d="M 17.5,108.5 C 22.5511,108.087 23.3845,109.421 20,112.5C 17.9803,111.968 17.147,110.635 17.5,108.5 Z"/></g>
<g><path style="opacity:1" fill="#f7eec9" d="M 131.5,95.5 C 130.192,96.2323 128.858,97.0656 127.5,98C 128.313,99.8847 129.647,100.551 131.5,100C 130.044,99.5774 129.544,98.7441 130,97.5C 131.966,98.7803 133.466,100.447 134.5,102.5C 133.153,101.972 131.819,101.805 130.5,102C 134.187,103.924 135.187,106.757 133.5,110.5C 129.623,112.977 125.623,113.143 121.5,111C 124.001,109.582 123.668,108.582 120.5,108C 121.471,106.796 122.471,106.296 123.5,106.5C 122.855,105.268 122.689,103.935 123,102.5C 121.299,106.875 118.133,108.542 113.5,107.5C 114.5,106.167 115.5,104.833 116.5,103.5C 117.833,102.167 119.167,100.833 120.5,99.5C 123.729,99.6291 125.395,98.4624 125.5,96C 127.473,95.5045 129.473,95.3379 131.5,95.5 Z"/></g>
<g><path style="opacity:1" fill="#f6d9ae" d="M 103.5,81.5 C 105.166,87.4993 106.833,93.4993 108.5,99.5C 109.09,100.766 109.59,102.099 110,103.5C 110.169,96.8085 110.669,90.1419 111.5,83.5C 112.697,90.3285 112.697,97.1618 111.5,104C 111.608,105.681 112.275,106.848 113.5,107.5C 112.058,108.82 111.392,110.486 111.5,112.5C 117.98,113.65 124.313,114.317 130.5,114.5C 127.72,115.274 125.72,116.274 124.5,117.5C 120.385,116.542 116.385,115.209 112.5,113.5C 111.833,113.833 111.167,114.167 110.5,114.5C 111.671,116.169 113.004,117.669 114.5,119C 112.888,120.482 111.888,122.315 111.5,124.5C 112.5,124.5 113.5,124.5 114.5,124.5C 112.572,126.294 110.238,127.294 107.5,127.5C 107.085,122.794 107.752,118.294 109.5,114C 108.733,112.53 108.067,111.03 107.5,109.5C 108.289,109.217 108.956,108.717 109.5,108C 108.011,106.532 106.677,105.032 105.5,103.5C 106.376,103.631 107.043,103.298 107.5,102.5C 105.059,97.2796 102.392,92.2796 99.5,87.5C 98.7369,84.8589 98.5702,82.1922 99,79.5C 99.3333,79.1667 99.6667,78.8333 100,78.5C 101.039,79.7101 102.206,80.7101 103.5,81.5 Z"/></g>
<g><path style="opacity:1" fill="#f9ecc6" d="M 95.5,92.5 C 99.515,95.5164 102.848,99.1831 105.5,103.5C 106.677,105.032 108.011,106.532 109.5,108C 108.956,108.717 108.289,109.217 107.5,109.5C 106.486,108.326 105.153,107.66 103.5,107.5C 101.735,106.539 99.7354,106.205 97.5,106.5C 94.7938,106.575 92.1272,106.908 89.5,107.5C 86.0977,107.342 82.7644,107.676 79.5,108.5C 79.5,107.833 79.5,107.167 79.5,106.5C 82.8806,106.54 86.2139,106.207 89.5,105.5C 89.4236,103.077 90.4236,101.244 92.5,100C 90.3923,97.9508 89.2257,95.4508 89,92.5C 86.0991,91.7633 83.9325,90.0967 82.5,87.5C 83.7382,86.5876 85.0715,86.4209 86.5,87C 88.4963,90.498 91.4963,92.3313 95.5,92.5 Z"/></g>
<g><path style="opacity:1" fill="#9ab599" d="M 21.5,98.5 C 21.9724,100.531 22.9724,102.198 24.5,103.5C 24.5,103.833 24.5,104.167 24.5,104.5C 19.1667,104.5 13.8333,104.5 8.5,104.5C 8.5,105.5 8.5,106.5 8.5,107.5C 10.7354,107.205 12.7354,107.539 14.5,108.5C 12.1667,108.5 9.83333,108.5 7.5,108.5C 7.5,106.833 7.5,105.167 7.5,103.5C 12.1667,103.5 16.8333,103.5 21.5,103.5C 21.5,101.833 21.5,100.167 21.5,98.5 Z"/></g>
<g><path style="opacity:1" fill="#966028" d="M 171.5,105.5 C 169.5,105.5 167.5,105.5 165.5,105.5C 165.365,103.446 166.032,101.779 167.5,100.5C 169.799,99.2222 172.132,97.8889 174.5,96.5C 176.49,97.4627 176.823,98.796 175.5,100.5C 172.353,101.255 171.02,102.921 171.5,105.5 Z"/></g>
<g><path style="opacity:1" fill="#412b19" d="M 155.5,97.5 C 158.553,97.1107 161.22,97.7773 163.5,99.5C 163.586,100.496 163.252,101.329 162.5,102C 160.167,102.667 157.833,102.667 155.5,102C 154.272,100.51 154.272,99.0098 155.5,97.5 Z"/></g>
<g><path style="opacity:1" fill="#45682e" d="M 57.5,107.5 C 57.5,107.833 57.5,108.167 57.5,108.5C 55.0971,108.448 52.7638,108.781 50.5,109.5C 50.6602,107.801 50.4935,106.134 50,104.5C 47.2656,103.638 47.0989,102.805 49.5,102C 45.012,99.9778 40.6787,97.8111 36.5,95.5C 36.8333,95.1667 37.1667,94.8333 37.5,94.5C 43.5269,97.977 45.6935,96.3103 44,89.5C 45.2663,92.4662 46.4329,95.4662 47.5,98.5C 49.1017,99.55 49.935,98.8833 50,96.5C 52.363,100.345 54.863,104.011 57.5,107.5 Z"/></g>
<g><path style="opacity:1" fill="#f7f8f7" d="M 8.5,73.5 C 9.04425,77.9101 10.0443,82.2434 11.5,86.5C 13.323,87.7472 15.323,88.4139 17.5,88.5C 17.5,89.8333 17.5,91.1667 17.5,92.5C 14.2011,91.6239 10.8678,91.4572 7.5,92C 5.94418,94.501 6.61085,96.001 9.5,96.5C 13.5457,96.9521 17.5457,97.6187 21.5,98.5C 21.5,100.167 21.5,101.833 21.5,103.5C 16.8333,103.5 12.1667,103.5 7.5,103.5C 7.5,105.167 7.5,106.833 7.5,108.5C 9.83333,108.5 12.1667,108.5 14.5,108.5C 14.5858,109.496 14.2524,110.329 13.5,111C 11.5643,111.813 9.56429,112.313 7.5,112.5C 7.5,113.833 7.5,115.167 7.5,116.5C 8.5,116.5 9.5,116.5 10.5,116.5C 11.2625,117.268 12.2625,117.768 13.5,118C 12.944,118.383 12.6107,118.883 12.5,119.5C 11.1667,119.5 9.83333,119.5 8.5,119.5C 6.80081,119.34 5.13414,119.506 3.5,120C 2.74756,120.671 2.41423,121.504 2.5,122.5C -0.169349,105.624 1.83065,89.2909 8.5,73.5 Z"/></g>
<g><path style="opacity:1" fill="#f4eaaa" d="M 152.5,107.5 C 152.5,108.167 152.5,108.833 152.5,109.5C 152.591,111.698 151.925,112.031 150.5,110.5C 148.94,110.519 147.44,110.852 146,111.5C 142.792,107.299 140.292,107.632 138.5,112.5C 138.986,114.304 139.653,115.971 140.5,117.5C 139.395,118.6 138.062,119.267 136.5,119.5C 136.167,118.833 135.833,118.167 135.5,117.5C 135.242,112.586 134.909,107.586 134.5,102.5C 133.466,100.447 131.966,98.7803 130,97.5C 129.544,98.7441 130.044,99.5774 131.5,100C 129.647,100.551 128.313,99.8847 127.5,98C 128.858,97.0656 130.192,96.2323 131.5,95.5C 131.351,94.448 131.517,93.448 132,92.5C 134.946,91.7067 137.113,90.0401 138.5,87.5C 139.5,87.5 140.5,87.5 141.5,87.5C 142.117,87.3893 142.617,87.056 143,86.5C 143.567,89.1677 144.067,91.8344 144.5,94.5C 145.5,94.5 146.5,94.5 147.5,94.5C 147.177,98.226 147.511,101.893 148.5,105.5C 149.622,106.63 150.956,107.297 152.5,107.5 Z"/></g>
<g><path style="opacity:1" fill="#336033" d="M 24.5,103.5 C 22.9724,102.198 21.9724,100.531 21.5,98.5C 17.5457,97.6187 13.5457,96.9521 9.5,96.5C 9.5,95.1667 9.5,93.8333 9.5,92.5C 14.1667,93.1667 18.8333,93.8333 23.5,94.5C 23.5,93.1667 23.5,91.8333 23.5,90.5C 24.9778,90.238 26.3112,90.5713 27.5,91.5C 26.4894,95.6226 25.4894,99.6226 24.5,103.5 Z"/></g>
<g><path style="opacity:1" fill="#f4efb4" d="M 81.5,87.5 C 81.8333,87.5 82.1667,87.5 82.5,87.5C 83.9325,90.0967 86.0991,91.7633 89,92.5C 89.2257,95.4508 90.3923,97.9508 92.5,100C 90.4236,101.244 89.4236,103.077 89.5,105.5C 86.2139,106.207 82.8806,106.54 79.5,106.5C 77.9142,105.852 76.2475,105.352 74.5,105C 74.7928,101.906 76.4594,100.406 79.5,100.5C 79.5,97.5 79.5,94.5 79.5,91.5C 80.552,91.6495 81.552,91.4828 82.5,91C 81.6634,89.9887 81.33,88.8221 81.5,87.5 Z"/></g>
<g><path style="opacity:1" fill="#f9c68f" d="M 113.5,85.5 C 113.334,89.8461 113.501,94.1794 114,98.5C 116.295,93.6431 118.128,88.6431 119.5,83.5C 120.674,82.4863 121.34,81.153 121.5,79.5C 123.96,77.8565 125.46,75.5232 126,72.5C 127.319,74.2495 127.819,76.2495 127.5,78.5C 123.532,86.4359 119.532,94.4359 115.5,102.5C 115.624,103.107 115.957,103.44 116.5,103.5C 115.5,104.833 114.5,106.167 113.5,107.5C 112.275,106.848 111.608,105.681 111.5,104C 112.697,97.1618 112.697,90.3285 111.5,83.5C 110.669,90.1419 110.169,96.8085 110,103.5C 109.59,102.099 109.09,100.766 108.5,99.5C 109.479,96.3752 109.813,93.0419 109.5,89.5C 109.334,83.4908 109.501,77.4908 110,71.5C 110.833,70.5 111.667,69.5 112.5,68.5C 113.495,74.1278 113.829,79.7945 113.5,85.5 Z"/></g>
<g><path style="opacity:1" fill="#facc97" d="M 138.5,87.5 C 137.113,90.0401 134.946,91.7067 132,92.5C 131.517,93.448 131.351,94.448 131.5,95.5C 129.473,95.3379 127.473,95.5045 125.5,96C 125.395,98.4624 123.729,99.6291 120.5,99.5C 122.999,96.8314 125.332,93.9981 127.5,91C 128.094,90.5357 128.761,90.369 129.5,90.5C 131.937,90.114 133.937,88.9473 135.5,87C 136.749,86.2599 137.749,86.4265 138.5,87.5 Z"/></g>
<g><path style="opacity:1" fill="#f4f6f4" d="M 199.5,43.5 C 205.666,51.82 210.833,60.82 215,70.5C 227.297,104.927 224.463,137.927 206.5,169.5C 205.85,167.565 205.517,165.565 205.5,163.5C 206.675,163.719 207.675,163.386 208.5,162.5C 209.539,158.347 209.539,154.014 208.5,149.5C 208.737,148.209 208.404,147.209 207.5,146.5C 207.5,144.833 207.5,143.167 207.5,141.5C 214.575,142.008 217.575,138.675 216.5,131.5C 214.901,126.173 214.568,120.84 215.5,115.5C 215.028,106.198 210.361,103.031 201.5,106C 199.531,107.5 198.198,109.333 197.5,111.5C 196.5,111.5 195.5,111.5 194.5,111.5C 194.97,117.348 195.304,123.015 195.5,128.5C 194.263,129.281 193.263,130.281 192.5,131.5C 193.167,131.833 193.833,132.167 194.5,132.5C 192.175,133.518 190.175,134.851 188.5,136.5C 195.661,109.449 190.994,84.7819 174.5,62.5C 182.525,55.8141 190.859,49.4807 199.5,43.5 Z"/></g>
<g><path style="opacity:1" fill="#38663e" d="M 215.5,115.5 C 214.404,117.103 213.07,118.603 211.5,120C 203.262,123.048 198.595,120.214 197.5,111.5C 198.198,109.333 199.531,107.5 201.5,106C 210.361,103.031 215.028,106.198 215.5,115.5 Z"/></g>
<g><path style="opacity:1" fill="#e9f7eb" d="M 202.5,109.5 C 205.187,109.336 207.854,109.503 210.5,110C 213.448,114.093 212.281,116.26 207,116.5C 202.054,116.387 200.554,114.053 202.5,109.5 Z"/></g>
<g><path style="opacity:1" fill="#326237" d="M 211.5,88.5 C 213.344,89.2039 213.844,90.5372 213,92.5C 205.196,96.2044 205.696,97.8711 214.5,97.5C 214.5,98.8333 214.5,100.167 214.5,101.5C 208.762,101.623 203.096,102.29 197.5,103.5C 197.557,101.116 197.223,98.7822 196.5,96.5C 197.48,90.6296 200.313,89.2962 205,92.5C 207.314,91.2668 209.481,89.9334 211.5,88.5 Z"/></g>
<g><path style="opacity:1" fill="#d9eace" d="M 200.5,94.5 C 203.5,94.1667 204.833,95.5 204.5,98.5C 202.833,98.5 201.167,98.5 199.5,98.5C 199.433,97.0413 199.766,95.7079 200.5,94.5 Z"/></g>
<g><path style="opacity:1" fill="#346038" d="M 207.5,81.5 C 208.833,81.5 210.167,81.5 211.5,81.5C 211.5,82.8333 211.5,84.1667 211.5,85.5C 206.47,86.6744 201.47,88.0077 196.5,89.5C 194.889,88.6798 194.222,87.3464 194.5,85.5C 199.176,84.9392 203.509,83.6059 207.5,81.5 Z"/></g>
<g><path style="opacity:1" fill="#f9b76f" d="M 159.5,72.5 C 153.02,77.0524 147.02,82.0524 141.5,87.5C 140.5,87.5 139.5,87.5 138.5,87.5C 137.749,86.4265 136.749,86.2599 135.5,87C 133.937,88.9473 131.937,90.114 129.5,90.5C 131.098,88.3021 132.431,85.9687 133.5,83.5C 134.167,83.5 134.833,83.5 135.5,83.5C 137.67,82.1618 139.336,80.3284 140.5,78C 141.833,77.3333 143.167,76.6667 144.5,76C 149.901,75.8825 154.901,74.7158 159.5,72.5 Z"/></g>
<g><path style="opacity:1" fill="#f5b76d" d="M 69.5,77.5 C 74.0064,79.8724 78.673,80.5391 83.5,79.5C 87.5,83.8333 91.5,88.1667 95.5,92.5C 91.4963,92.3313 88.4963,90.498 86.5,87C 85.0715,86.4209 83.7382,86.5876 82.5,87.5C 82.1667,87.5 81.8333,87.5 81.5,87.5C 77.183,84.5136 73.183,81.1803 69.5,77.5 Z"/></g>
<g><path style="opacity:1" fill="#37633d" d="M 15.5,74.5 C 16.6431,74.9081 17.6431,75.5748 18.5,76.5C 16.9137,78.1727 16.2471,80.1727 16.5,82.5C 17.552,82.6495 18.552,82.4828 19.5,82C 21.0542,80.108 22.8876,78.608 25,77.5C 26.2247,77.8623 27.3914,78.3623 28.5,79C 30.1641,82.8608 29.6641,86.3608 27,89.5C 26.0754,88.9535 25.2421,88.2868 24.5,87.5C 25.9501,86.1502 26.6168,84.4835 26.5,82.5C 23.9158,82.5688 21.9158,83.7355 20.5,86C 15.5937,87.756 12.9271,86.0893 12.5,81C 12.8402,78.4887 13.8402,76.322 15.5,74.5 Z"/></g>
<g><path style="opacity:1" fill="#386439" d="M 198.5,56.5 C 200.121,56.7869 201.121,57.7869 201.5,59.5C 196.167,61.977 193.001,65.977 192,71.5C 193,72.8333 194,74.1667 195,75.5C 198.775,73.7402 202.608,72.0735 206.5,70.5C 207.415,71.3279 208.081,72.3279 208.5,73.5C 205.074,75.6007 201.407,77.434 197.5,79C 196.167,80.3333 196.167,81.6667 197.5,83C 196.975,83.6924 196.308,84.1924 195.5,84.5C 192.465,79.755 189.798,74.755 187.5,69.5C 188.253,67.2466 189.586,65.4133 191.5,64C 188.028,64.0574 185.028,63.0574 182.5,61C 186.167,60.6667 189.833,60.3333 193.5,60C 195.346,58.9702 197.013,57.8036 198.5,56.5 Z"/></g>
<g><path style="opacity:1" fill="#201b2c" d="M 47.5,62.5 C 48.1667,62.5 48.5,62.8333 48.5,63.5C 38.4602,75.5998 32.7935,89.5998 31.5,105.5C 30.596,104.791 30.2627,103.791 30.5,102.5C 31.911,87.2411 37.5776,73.9077 47.5,62.5 Z"/></g>
<g><path style="opacity:1" fill="#fbb368" d="M 113.5,85.5 C 113.829,79.7945 113.495,74.1278 112.5,68.5C 111.667,69.5 110.833,70.5 110,71.5C 109.501,77.4908 109.334,83.4908 109.5,89.5C 108.513,84.6946 108.179,79.6946 108.5,74.5C 107.869,68.6144 109.203,63.281 112.5,58.5C 113.192,59.0253 113.692,59.6919 114,60.5C 115.76,68.9747 115.593,77.308 113.5,85.5 Z"/></g>
<g><path style="opacity:1" fill="#36623c" d="M 17.5,67.5 C 23.0546,69.2761 28.388,71.6095 33.5,74.5C 33.0814,75.6721 32.4147,76.6721 31.5,77.5C 26.3709,75.4353 21.3709,73.102 16.5,70.5C 17.1272,69.5832 17.4606,68.5832 17.5,67.5 Z"/></g>
<g><path style="opacity:1" fill="#faad60" d="M 127.5,78.5 C 127.819,76.2495 127.319,74.2495 126,72.5C 125.46,75.5232 123.96,77.8565 121.5,79.5C 121.873,76.4261 122.539,73.4261 123.5,70.5C 125.828,69.2644 126.994,67.2644 127,64.5C 131.438,69.0347 131.605,73.7014 127.5,78.5 Z"/></g>
<g><path style="opacity:1" fill="#fbb770" d="M 100.5,71.5 C 101.492,74.8229 102.492,78.1563 103.5,81.5C 102.206,80.7101 101.039,79.7101 100,78.5C 99.6667,78.8333 99.3333,79.1667 99,79.5C 98.5702,82.1922 98.7369,84.8589 99.5,87.5C 97.659,85.1515 96.3257,82.4848 95.5,79.5C 94.7575,76.0272 94.0909,72.5272 93.5,69C 92.9324,65.7366 94.2657,64.2366 97.5,64.5C 97.1824,67.4815 98.1824,69.8148 100.5,71.5 Z"/></g>
<g><path style="opacity:1" fill="#37603b" d="M 26.5,51.5 C 31.5201,53.7615 36.3534,56.4282 41,59.5C 39.836,67.3231 35.336,70.4898 27.5,69C 26,67.5 24.5,66 23,64.5C 22.3333,62.5 22.3333,60.5 23,58.5C 24.1932,56.1136 25.3599,53.7802 26.5,51.5 Z"/></g>
<g><path style="opacity:1" fill="#edf8f0" d="M 27.5,56.5 C 29.7802,57.6401 32.1136,58.8068 34.5,60C 37.1667,61.6667 37.1667,63.3333 34.5,65C 27.94,65.6086 25.6067,62.7753 27.5,56.5 Z"/></g>
<g><path style="opacity:1" fill="#36623b" d="M 173.5,188.5 C 175.999,190.604 175.999,192.604 173.5,194.5C 170.487,191.651 167.82,188.485 165.5,185C 163.953,184.667 162.62,185.167 161.5,186.5C 160.817,186.137 160.15,185.804 159.5,185.5C 159.511,183.983 160.177,182.816 161.5,182C 164,180.167 166.5,178.333 169,176.5C 172.118,178.448 171.951,180.281 168.5,182C 170.016,184.341 171.683,186.508 173.5,188.5 Z"/></g>
<g><path style="opacity:1" fill="#221f33" d="M 31.5,119.5 C 34.3036,147.14 47.6369,167.807 71.5,181.5C 73.3356,183.588 75.6689,184.921 78.5,185.5C 98.7884,194.46 119.122,194.793 139.5,186.5C 160.357,178.248 175.357,163.915 184.5,143.5C 184.833,143.5 185.167,143.5 185.5,143.5C 183.123,149.921 179.956,155.921 176,161.5C 149.872,191.743 117.705,200.577 79.5,188C 50.6005,175.013 34.2672,152.847 30.5,121.5C 30.3284,120.508 30.6618,119.842 31.5,119.5 Z"/></g>
<g><path style="opacity:1" fill="#c2bf7c" d="M 85.5,177.5 C 88.6414,178.321 91.9748,178.821 95.5,179C 97.0016,179.583 98.3349,180.416 99.5,181.5C 99.1667,181.833 98.8333,182.167 98.5,182.5C 91.9585,184.206 85.2919,184.873 78.5,184.5C 78.0618,184.565 77.7284,184.399 77.5,184C 79.0557,183.28 80.0557,182.113 80.5,180.5C 82.184,179.473 83.8506,178.473 85.5,177.5 Z"/></g>
<g><path style="opacity:1" fill="#cdb777" d="M 161.5,155.5 C 161.805,160.762 161.471,165.928 160.5,171C 156.5,171.667 152.5,171.667 148.5,171C 147.663,169.989 147.33,168.822 147.5,167.5C 149.265,166.539 151.265,166.205 153.5,166.5C 154.5,166.5 155.5,166.5 156.5,166.5C 157.002,168.085 158.002,168.585 159.5,168C 158.533,163.599 158.2,159.099 158.5,154.5C 159.791,154.263 160.791,154.596 161.5,155.5 Z"/></g>
<g><path style="opacity:1" fill="#d4ab67" d="M 162.5,155.5 C 163.833,155.5 165.167,155.5 166.5,155.5C 165.963,172.57 164.629,172.57 162.5,155.5 Z"/></g>
<g><path style="opacity:1" fill="#9e6625" d="M 154.5,149.5 C 157.393,150.523 160.226,150.523 163,149.5C 163.089,151.113 162.255,152.28 160.5,153C 161.872,153.402 163.205,153.902 164.5,154.5C 165.107,154.376 165.44,154.043 165.5,153.5C 166.338,153.842 166.672,154.508 166.5,155.5C 165.167,155.5 163.833,155.5 162.5,155.5C 162.167,155.5 161.833,155.5 161.5,155.5C 160.791,154.596 159.791,154.263 158.5,154.5C 158.2,159.099 158.533,163.599 159.5,168C 158.002,168.585 157.002,168.085 156.5,166.5C 155.935,161.678 156.601,157.178 158.5,153C 156.45,152.584 155.116,151.417 154.5,149.5 Z"/></g>
<g><path style="opacity:1" fill="#c5c07a" d="M 95.5,148.5 C 100.681,149.167 106.015,149.833 111.5,150.5C 107.137,151.964 102.637,152.631 98,152.5C 94.9792,152.498 92.1459,152.164 89.5,151.5C 91.7105,150.877 93.7105,149.877 95.5,148.5 Z"/></g>
<g><path style="opacity:1" fill="#967e31" d="M 153.5,148.5 C 151.456,147.969 149.789,146.802 148.5,145C 150.772,145.077 152.438,146.243 153.5,148.5 Z"/></g>
<g><path style="opacity:1" fill="#366439" d="M 63.5,186.5 C 58.5219,188.991 53.8553,191.991 49.5,195.5C 46.0826,194.474 45.0826,192.474 46.5,189.5C 47.8874,186.361 49.054,183.028 50,179.5C 51.7499,175.527 53.2499,175.527 54.5,179.5C 53.3048,182.843 52.4714,186.177 52,189.5C 54.6727,186.998 57.6727,184.998 61,183.5C 62.7491,183.748 63.5824,184.748 63.5,186.5 Z"/></g>
<g><path style="opacity:1" fill="#356638" d="M 159.5,185.5 C 161.295,190.423 163.628,195.09 166.5,199.5C 165.562,200.553 164.395,201.22 163,201.5C 159.646,199.088 156.146,197.255 152.5,196C 154.426,199.076 156.092,202.242 157.5,205.5C 156.033,206.292 154.7,206.292 153.5,205.5C 151.287,200.906 148.953,196.406 146.5,192C 147.212,190.558 148.379,189.725 150,189.5C 153.099,191.47 156.265,192.97 159.5,194C 158.292,191.75 156.959,189.583 155.5,187.5C 156.368,185.204 157.702,184.537 159.5,185.5 Z"/></g>
<g><path style="opacity:1" fill="#39643e" d="M 65.5,205.5 C 62.1943,204.18 59.1943,202.347 56.5,200C 59.093,195.59 61.4263,191.09 63.5,186.5C 64.1174,186.389 64.6174,186.056 65,185.5C 68.3098,186.898 71.1431,188.898 73.5,191.5C 73.1924,192.308 72.6924,192.975 72,193.5C 70.0072,191.622 67.8405,191.288 65.5,192.5C 66.9448,194.063 68.6115,195.396 70.5,196.5C 68.515,198.933 66.3483,198.933 64,196.5C 63.1667,197.333 62.3333,198.167 61.5,199C 63.2487,200.292 65.082,201.458 67,202.5C 67.5847,203.998 67.0847,204.998 65.5,205.5 Z"/></g>
<g><path style="opacity:1" fill="#356137" d="M 101.5,198.5 C 105.273,198.263 108.94,198.763 112.5,200C 115.496,206.807 113.162,209.973 105.5,209.5C 105.5,211.5 105.5,213.5 105.5,215.5C 104.167,215.5 102.833,215.5 101.5,215.5C 101.5,209.833 101.5,204.167 101.5,198.5 Z"/></g>
<g><path style="opacity:1" fill="#356338" d="M 70.5,207.5 C 70.1667,207.5 69.8333,207.5 69.5,207.5C 71.0568,201.831 73.3901,196.497 76.5,191.5C 77.5,192 78.5,192.5 79.5,193C 78.0285,197.081 76.3618,201.081 74.5,205C 76.3451,206.423 78.3451,207.59 80.5,208.5C 80.1131,209.72 79.2798,210.387 78,210.5C 75.3516,209.786 72.8516,208.786 70.5,207.5 Z"/></g>
<g><path style="opacity:1" fill="#c6e5d0" d="M 105.5,201.5 C 109.676,200.831 111.009,202.331 109.5,206C 108.207,206.49 106.873,206.657 105.5,206.5C 105.5,204.833 105.5,203.167 105.5,201.5 Z"/></g>
<g><path style="opacity:1" fill="#37613d" d="M 140.5,211.5 C 139.662,211.158 139.328,210.492 139.5,209.5C 137.934,204.968 136.267,200.468 134.5,196C 137.138,194.451 139.971,193.285 143,192.5C 144.28,192.613 145.113,193.28 145.5,194.5C 143.128,195.347 141.128,196.681 139.5,198.5C 139.808,199.308 140.308,199.975 141,200.5C 143.63,198.172 145.797,198.339 147.5,201C 145.5,202 143.5,203 141.5,204C 143.685,207.02 146.185,207.186 149,204.5C 149.5,205.5 150,206.5 150.5,207.5C 147.227,209.034 143.894,210.368 140.5,211.5 Z"/></g>
<g><path style="opacity:1" fill="#3a643b" d="M 135.5,213.5 C 134.167,213.5 132.833,213.5 131.5,213.5C 129.907,201.756 128.574,202.09 127.5,214.5C 126.325,214.719 125.325,214.386 124.5,213.5C 120.984,204.33 119.65,204.997 120.5,215.5C 119.5,215.5 118.5,215.5 117.5,215.5C 116.899,209.821 116.232,204.155 115.5,198.5C 117.604,198.201 119.604,198.534 121.5,199.5C 122.942,202.05 124.108,204.716 125,207.5C 125.667,204.167 126.333,200.833 127,197.5C 128.699,196.594 130.533,196.261 132.5,196.5C 133.628,202.141 134.628,207.808 135.5,213.5 Z"/></g>
<g><path style="opacity:1" fill="#36643a" d="M 84.5,211.5 C 81.2579,205.394 82.5912,200.561 88.5,197C 98.3663,196.532 101.533,201.032 98,210.5C 93.759,214.1 89.259,214.434 84.5,211.5 Z"/></g>
<g><path style="opacity:1" fill="#e6f4e6" d="M 90.5,199.5 C 95.4289,200.82 96.5956,203.82 94,208.5C 90.1675,211.673 88.0009,210.839 87.5,206C 87.3199,203.198 88.3199,201.031 90.5,199.5 Z"/></g>
</svg>
